#N canvas 0 0 1920 998 10;
#X obj 269 305 bng 15 250 50 0 empty empty empty 17 7 0 10 -262144
-1 -1;
#X msg 270 336 60;
#X obj 270 386 mtof;
#X obj 270 419 osc~;
#X obj 267 509 dac~;
#X obj 153 179 tgl 15 0 empty empty empty 17 7 0 10 -262144 -1 -1 0
1;
#X text 146 159 Toggle On/Off;
#X floatatom 216 510 5 0 0 0 - - -;
#X msg 81 218 \; pd dsp \$1;
#X obj 266 465 freeverb~;
#X msg 411 420 wet \$1;
#X obj 411 266 vsl 15 128 0 1 0 0 empty empty empty 0 -9 0 10 -262144
-1 -1 7620 1;
#X obj 527 266 vsl 15 128 0 1 0 0 empty empty empty 0 -9 0 10 -262144
-1 -1 8890 1;
#X obj 607 266 vsl 15 128 0 1 0 0 empty empty empty 0 -9 0 10 -262144
-1 -1 7620 1;
#X msg 527 420 damping \$1;
#X msg 607 420 roomsize \$1;
#X msg 687 420 width \$1;
#X obj 471 266 vsl 15 128 0 1 0 0 empty empty empty 0 -9 0 10 -262144
-1 -1 1270 1;
#X msg 471 420 dry \$1;
#X obj 689 263 vsl 15 128 0 1 0 0 empty empty empty 0 -9 0 10 -262144
-1 -1 5080 1;
#X msg 527 221 0.7;
#X msg 689 221 0.4;
#X msg 607 221 0.6;
#X obj 409 179 bng 15 250 50 0 empty empty empty 17 7 0 10 -262144
-1 -1;
#X msg 411 221 0.6;
#X msg 471 222 0.1;
#X obj 99 84 r onOff;
#X obj 252 97 s onOff;
#X obj 255 3 tgl 15 0 empty empty empty 17 7 0 10 -262144 -1 -1 0 1
;
#X connect 0 0 1 0;
#X connect 1 0 2 0;
#X connect 2 0 3 0;
#X connect 2 0 7 0;
#X connect 3 0 9 0;
#X connect 3 0 9 1;
#X connect 5 0 8 0;
#X connect 5 0 0 0;
#X connect 5 0 23 0;
#X connect 9 0 4 0;
#X connect 9 1 4 1;
#X connect 10 0 9 0;
#X connect 11 0 10 0;
#X connect 12 0 14 0;
#X connect 13 0 15 0;
#X connect 14 0 9 0;
#X connect 15 0 9 0;
#X connect 16 0 9 0;
#X connect 17 0 18 0;
#X connect 18 0 9 0;
#X connect 19 0 16 0;
#X connect 20 0 12 0;
#X connect 21 0 19 0;
#X connect 22 0 13 0;
#X connect 23 0 24 0;
#X connect 23 0 25 0;
#X connect 23 0 20 0;
#X connect 23 0 22 0;
#X connect 23 0 21 0;
#X connect 24 0 11 0;
#X connect 25 0 17 0;
#X connect 26 0 5 0;
#X connect 28 0 27 0;
