#N canvas 257 131 1920 893 10;
#X obj 269 305 bng 15 250 50 0 empty empty empty 17 7 0 10 -262144
-1 -1;
#X msg 270 336 60;
#X obj 270 386 mtof;
#X obj 270 415 osc~;
#X obj 267 509 dac~;
#X obj 153 179 tgl 15 0 empty empty empty 17 7 0 10 -262144 -1 -1 0
1;
#X text 146 159 Toggle On/Off;
#X floatatom 216 510 5 0 0 0 - - -;
#X msg 81 218 \; pd dsp \$1;
#X obj 99 84 r onOff;
#X obj 252 97 s onOff;
#X obj 255 3 tgl 15 0 empty empty empty 17 7 0 10 -262144 -1 -1 0 1
;
#X connect 0 0 1 0;
#X connect 1 0 2 0;
#X connect 2 0 3 0;
#X connect 2 0 7 0;
#X connect 3 0 4 0;
#X connect 3 0 4 1;
#X connect 5 0 8 0;
#X connect 5 0 0 0;
#X connect 9 0 5 0;
#X connect 11 0 10 0;
