#N canvas 65 486 1301 714 10;
#X obj 2326 -19 mtof;
#X msg 2500 -1161 \; pd dsp \$1;
#X obj 2537 -592 tgl 15 0 empty empty empty 17 7 0 10 -262144 -1 -1
0 1;
#X obj 2354 -147 r key;
#X obj 2537 -568 metro;
#X obj 2482 -833 r volume;
#X obj 2326 -50 +;
#X floatatom 2326 -33 5 0 0 0 - - -;
#X text 2337 -893 Audio Output;
#X text 2534 -638 Metronome;
#X obj 2326 -2 s~ osc_freq;
#X obj 2483 -1053 r~ osc_freq;
#X obj 2447 -1206 tgl 15 0 empty empty empty 17 7 0 10 -262144 -1 -1
0 1;
#X text 1709 -1070 Create Scales;
#X text 2443 -1245 Turn Audio On;
#X text 2433 -595 Metronome On/Off;
#X obj 2447 -1161 s wakeup;
#X obj 2537 -619 r wakeup;
#X obj 2354 -93 +;
#X obj 2597 -585 /;
#X obj 2483 -1036 osc~;
#X text 2480 -1072 Sine Oscillator;
#X obj 2483 -1002 s~ sine_osc;
#X obj 2460 -781 *~;
#X obj 2323 -866 r~ sine_osc;
#X obj 2507 -866 r~ sawtooth_osc;
#X obj 2483 -1019 *~;
#X obj 2511 -1036 r sine_osc_level;
#X obj 2633 -1054 r~ osc_freq;
#X obj 2633 -1020 *~;
#X text 2630 -1073 Sawtooth Oscillator;
#X obj 2633 -1037 phasor~;
#X obj 2679 -1037 r sawtooth_osc_level;
#X obj 2633 -1006 s~ sawtooth_osc;
#X obj 2332 -1053 r~ osc_freq;
#X obj 2333 -933 *~;
#X obj 2332 -1036 phasor~;
#X text 2329 -1072 PWM Oscillator;
#X obj 2333 -915 s~ pwm_osc;
#X obj 2732 -866 r~ pwm_osc;
#X obj 2365 -950 r pwm_osc_level;
#X obj 2348 -1002 r pwm_duty_cycle;
#X obj 2342 -694 dac~;
#X msg 341 -108 0.5;
#X msg 236 -108 0.5;
#X obj 2333 -951 >~;
#X obj 56 -337 r init_vars;
#X obj 2327 -1124 s init_vars;
#X obj 1715 -1053 r init_vars;
#X msg 385 34 0.85;
#X msg 460 34 1;
#X msg 316 34 0.5;
#X obj 2460 -729 freeverb~;
#X msg 2564 -746 wet \$1;
#X msg 2654 -746 damping \$1;
#X msg 2724 -746 roomsize \$1;
#X msg 2800 -746 width \$1;
#X msg 2609 -746 dry \$1;
#X obj 2609 -763 r dry;
#X obj 2564 -763 r wet;
#X obj 2654 -763 r damping;
#X obj 2724 -763 r roomsize;
#X obj 2800 -763 r width;
#X obj 2447 -1227 r onOff;
#X msg 2456 -195 0;
#X msg 2483 -195 12;
#X msg 2510 -195 24;
#X obj 2326 -178 pack;
#X obj 2326 -107 +;
#X msg 266 -179 0.3;
#X msg 236 -250 0.45;
#X msg 2537 -195 36;
#X msg 2564 -195 48;
#X msg 2591 -195 60;
#X msg 2618 -195 72;
#X obj 1715 -889 table major_scale 7;
#X msg 2645 -195 84;
#X obj 2456 -399 spigot;
#X obj 56 -196 r init_vars;
#X obj 55 -125 r init_vars;
#X obj 55 17 r init_vars;
#X text 130 15 Reverb;
#X text 129 -197 Sawtooth Oscillator;
#X text 127 -126 PWM Osicillator;
#X obj 56 -267 r init_vars;
#X text 129 -269 Sine Oscillator;
#X msg 126 34 1;
#X obj 55 -54 r init_vars;
#X msg 125 -37 1;
#X text 130 -55 Bandpass Filter;
#X obj 2326 -365 tabread scale;
#X obj 1730 -629 arraycopy scale;
#X obj 1714 -611 arraysize;
#X obj 2537 -551 bng 15 250 50 0 empty empty empty 17 7 0 10 -262144
-1 -1;
#X floatatom 2306 -415 5 0 0 0 - - -;
#X msg 2537 -416 1;
#X msg 2489 -416 0;
#X msg 1714 -767 set major_scale;
#X obj 1714 -594 s scale_size;
#X obj 2613 -399 r scale_size;
#X obj 2510 -382 * 2;
#X obj 2537 -365 * 3;
#X obj 2564 -348 * 4;
#X obj 2591 -331 * 5;
#X obj 2618 -314 * 6;
#X obj 2645 -297 * 7;
#X obj 2672 -280 * 8;
#X obj 2422 -382 %;
#X obj 2456 -382 moses;
#X obj 2483 -365 moses;
#X obj 2510 -348 moses;
#X obj 2537 -331 moses;
#X obj 2564 -314 moses;
#X obj 2591 -297 moses;
#X obj 2618 -280 moses;
#X obj 2645 -263 moses;
#X obj 2672 -246 moses;
#X obj 2699 -263 * 9;
#X msg 2672 -195 96;
#X msg 2699 -195 108;
#X msg 2726 -195 120;
#X obj 2699 -229 moses;
#X obj 2726 -246 * 10;
#X obj 2726 -212 moses;
#X obj 2753 -229 * 11;
#X obj 1714 -749 bng 15 250 50 0 empty empty empty 17 7 0 10 -262144
-1 -1;
#X msg 1730 -749 copy major_scale;
#X obj 1714 -713 bng 15 250 50 0 empty empty empty 17 7 0 10 -262144
-1 -1;
#X obj 2029 -519 bng 15 250 50 0 empty empty empty 17 7 0 10 -262144
-1 -1;
#X obj 2165 -909 table one_five 2;
#X obj 1814 -1059 table scale 11;
#X obj 2165 -889 table one_four 2;
#X obj 1715 -909 table chromatic 11;
#X obj 2167 -805 bng 15 250 50 0 empty empty empty 17 7 0 10 -262144
-1 -1;
#X msg 2167 -823 set one_five;
#X msg 2183 -805 copy one_five;
#X obj 2165 -929 table octave 1;
#X obj 2167 -769 bng 15 250 50 0 empty empty empty 17 7 0 10 -262144
-1 -1;
#X msg 2167 -787 set one_four;
#X msg 2183 -769 copy one_four;
#X obj 2167 -841 bng 15 250 50 0 empty empty empty 17 7 0 10 -262144
-1 -1;
#X msg 2167 -859 set octave;
#X msg 2183 -841 copy octave;
#X obj 1714 -785 bng 15 250 50 0 empty empty empty 17 7 0 10 -262144
-1 -1;
#X msg 1714 -803 set chromatic;
#X msg 1730 -785 copy chromatic;
#X obj 1715 -869 table nat_minor_scale 7;
#X msg 1714 -731 set nat_minor_scale;
#X msg 1730 -713 copy nat_minor_scale;
#X obj 1714 -677 bng 15 250 50 0 empty empty empty 17 7 0 10 -262144
-1 -1;
#X msg 1714 -695 set har_minor_scale;
#X msg 1730 -677 copy har_minor_scale;
#X obj 1715 -849 table har_minor_scale 7;
#X obj 2000 -573 r init_vars;
#X msg 365 -320 12;
#X obj 2519 -711 writesf~ 2;
#X msg 2826 -729 start;
#X msg 2875 -729 stop;
#X msg 2519 -729 open /home/scheiblk/Documents/test_fave_file.wav;
#X msg 2475 -815 \$1 50;
#X obj 2475 -798 line~;
#X obj 2460 -833 +~;
#X obj 2381 -1175 f;
#X obj 2419 -1175 + 1;
#X obj 2381 -1191 bng 15 250 50 0 empty empty empty 17 7 0 10 -262144
-1 -1;
#X obj 40 -1174 tgl 50 0 onOff empty ON_OFF 0 -10 0 10 -262144 -1 -1
0 1;
#X obj 2381 -1158 == 0;
#X obj 2001 -552 bng 15 250 50 0 empty empty empty 17 7 0 10 -262144
-1 -1;
#X obj 2327 -1175 loadbang;
#X msg 2327 -1158 1;
#X obj 2302 -815 r bpf_freq;
#X obj 2460 -764 bp~;
#X obj 2302 -781 line;
#X obj 2374 -781 line;
#X msg 2374 -798 \$1 50;
#X obj 2374 -815 r bpf_width;
#X obj 2507 -747 spigot~;
#X obj 2460 -747 spigot~;
#X obj 2483 -781 r bpf_state;
#X obj 2496 -764 == 0;
#X obj 2525 -764 == 1;
#X obj 2327 -1141 spigot;
#X obj 2586 -850 *~;
#X obj 2601 -866 r sawtooth_osc_state;
#X obj 2781 -850 *~;
#X obj 2796 -866 r pwm_osc_state;
#X obj 2379 -850 *~;
#X obj 2394 -866 r sine_osc_state;
#X msg 2348 -985 \$1 50;
#X obj 2348 -968 line~;
#X msg 2860 -763 == 0;
#X obj 2860 -780 r reverb_state;
#X msg 2860 -746 bypass \$1;
#X msg 226 34 0.7;
#X msg 271 34 0.45;
#X obj 2029 -483 bng 15 250 50 0 empty empty empty 17 7 0 10 -262144
-1 -1;
#X msg 2152 -1036 \; octave 0 0 \; one_four 0 0 5 \; one_five 0 0 7
\;;
#X obj 2183 -700 arraycopy scale;
#X obj 2167 -682 arraysize;
#X obj 2167 -665 s scale_size;
#X obj 2045 -220 arraycopy scale;
#X obj 2029 -202 arraysize;
#X obj 2029 -185 s scale_size;
#X obj 2029 -412 bng 15 250 50 0 empty empty empty 17 7 0 10 -262144
-1 -1;
#X obj 2029 -376 bng 15 250 50 0 empty empty empty 17 7 0 10 -262144
-1 -1;
#X obj 2029 -448 bng 15 250 50 0 empty empty empty 17 7 0 10 -262144
-1 -1;
#X obj 2029 -341 bng 15 250 50 0 empty empty empty 17 7 0 10 -262144
-1 -1;
#X obj 2029 -305 bng 15 250 50 0 empty empty empty 17 7 0 10 -262144
-1 -1;
#X obj 2029 -269 bng 15 250 50 0 empty empty empty 17 7 0 10 -262144
-1 -1;
#X obj 2618 -536 f;
#X obj 2651 -536 + 1;
#X obj 2678 -502 == 0;
#X obj 2577 -468 f;
#X obj 2610 -468 + 1;
#X obj 2537 -485 spigot;
#X obj 2577 -434 s counter;
#X obj 1867 -554 sel 0 1 2 3 4 5 6 7;
#X obj 2342 -711 clip~ -0.5 0.5;
#X obj 2431 -711 clip~ -0.5 0.5;
#X msg 1969 -1036 \; M_one_three_five 0 0 4 7 \; M_two_four_six 0 2
5 9 \; M_three_five_seven 0 4 7 11 \; M_four_six_one 0 5 9 12 \; M_five_seven_two
0 7 11 14 \; M_six_one_three 0 9 12 16 \; M_seven_two_four 0 11 14
17 \; Mo_one_three_five 0 12 16 19 \;;
#X obj 1965 -799 table M_six_one_three 3;
#X obj 1965 -819 table M_five_seven_two 3;
#X obj 1965 -839 table M_four_six_one 3;
#X obj 1965 -859 table M_three_five_seven 3;
#X obj 1965 -879 table M_two_four_six 3;
#X obj 1965 -899 table M_one_three_five 3;
#X obj 1965 -779 table M_seven_two_four 3;
#X obj 1965 -759 table Mo_one_three_five 3;
#X msg 2029 -536 set M_one_three_five;
#X msg 2045 -519 copy M_one_three_five;
#X msg 2029 -501 set M_two_four_six;
#X msg 2045 -484 copy M_two_four_six;
#X msg 2029 -466 set M_three_five_seven;
#X msg 2045 -448 copy M_three_five_seven;
#X msg 2029 -430 set M_four_six_one;
#X msg 2045 -412 copy M_four_six_one;
#X msg 2029 -394 set M_five_seven_two;
#X msg 2045 -377 copy M_five_seven_two;
#X msg 2045 -341 copy M_six_one_three;
#X msg 2029 -359 set M_six_one_three;
#X msg 2029 -324 set M_seven_two_four;
#X msg 2045 -305 copy M_seven_two_four;
#X msg 2029 -287 set Mo_one_three_five;
#X msg 2045 -269 copy Mo_one_three_five;
#X msg 1715 -1031 \; scale 0 0 1 2 3 4 5 6 7 8 9 10 11 \; chromatic
0 0 1 2 3 4 5 6 7 8 9 10 11 \; major_scale 0 0 2 4 5 7 9 11 \; nat_minor_scale
0 0 2 3 5 7 8 10 \; har_minor_scale 0 0 2 3 5 7 8 11 \;;
#X obj 2636 -634 r bpm;
#X msg 2597 -602 60000;
#X text 54 -722 Initialize Variables;
#X obj 2957 -1238 bng 15 250 50 0 empty empty empty 17 7 0 10 -262144
-1 -1;
#X msg 321 -320 150;
#X obj 2678 -519 %;
#X obj 2597 -617 bng 15 250 50 0 empty empty empty 17 7 0 10 -262144
-1 -1;
#X obj 2636 -602 * 8;
#X msg 2693 -536 1;
#X msg 2713 -536 2;
#X msg 2733 -536 4;
#X msg 2753 -536 8;
#X msg 2773 -536 16;
#X msg 2793 -536 32;
#X msg 2813 -536 64;
#X msg 2833 -536 128;
#X msg 2853 -536 256;
#X text 2694 -591 Note Length;
#X obj 2577 -451 % 8;
#X obj 2693 -553 sel 0 1 2 3 4 5 6 7 8;
#X text 2643 -454 Loop Counter;
#X msg 229 -320 2;
#X obj 2354 -113 pack;
#X msg 2375 -130 12;
#X obj 2326 -76 pack;
#X msg 187 -320 0;
#X obj 786 -1067 r left_pitch;
#X obj 786 -847 r left_roll;
#X obj 786 -617 r right_pitch;
#X obj 786 -367 r right_roll;
#X obj 933 -617 r right_pitch_sel;
#X obj 933 -847 r left_roll_sel;
#X obj 933 -1067 r left_pitch_sel;
#X obj 933 -367 r right_roll_sel;
#X obj 355 -989 nbx 4 14 -1e+37 1e+37 0 0 empty right_pitch empty 0
-8 0 10 -262144 -1 -1 0 256;
#X obj 352 -1049 knob 50 50 -180 180 0 0 right_pitch init_right_pitch
Right_Pitch -8 -15 0 12 -4034 -190721 -258113 2450 1;
#X obj 515 -988 nbx 4 14 -1e+37 1e+37 0 0 empty right_roll empty 0
-8 0 10 -262144 -1 -1 0 256;
#X obj 512 -1048 knob 50 50 -180 180 0 0 right_roll init_right_roll
Right_Roll -8 -15 0 12 -4034 -190721 -180225 2450 1;
#X obj 35 -989 nbx 4 14 -1e+37 1e+37 0 0 empty left_pitch empty 0 -8
0 10 -262144 -1 -1 -3.67347 256;
#X obj 32 -1049 knob 50 50 -180 180 0 0 left_pitch init_left_pitch
Left_Pitch -8 -15 0 12 -4034 -190721 -5312 2400 1;
#X obj 195 -988 nbx 4 14 -1e+37 1e+37 0 0 empty left_roll empty 0 -8
0 10 -262144 -1 -1 0 256;
#X obj 192 -1048 knob 50 50 -180 180 0 0 left_roll init_left_roll Left_Roll
-8 -15 0 12 -4144 -190721 -4145 2450 1;
#X msg 475 -320 0;
#X obj 56 -697 r init_vars;
#X msg 128 -680 0;
#X obj 128 -663 s init_left_pitch;
#X msg 241 -680 0;
#X obj 241 -663 s init_left_roll;
#X msg 348 -680 0;
#X msg 466 -680 0;
#X obj 348 -663 s init_right_pitch;
#X obj 466 -663 s init_right_roll;
#X text 132 -701 Pitch and Roll;
#X text 133 -339 Basic Controls;
#X obj 56 -607 r init_vars;
#X msg 128 -590 0;
#X text 132 -611 Pitch and Roll Effect Select;
#X msg 273 -590 1;
#X msg 411 -590 2;
#X msg 561 -590 3;
#X obj 578 -663 s pitch_range;
#X obj 666 -663 s roll_range;
#X msg 578 -680 360;
#X msg 666 -680 360;
#X obj 786 -1033 /;
#X obj 1591 -1050 r pitch_range;
#X obj 866 -1033 /;
#X obj 946 -1033 /;
#X obj 1026 -1033 /;
#X obj 1106 -1033 /;
#X obj 1186 -1033 /;
#X obj 1266 -1033 /;
#X obj 1346 -1033 /;
#X obj 1426 -1033 /;
#X obj 1506 -1033 /;
#X obj 801 -998 r e1_range;
#X obj 786 -946 +;
#X obj 786 -981 *;
#X obj 866 -946 +;
#X obj 866 -981 *;
#X obj 946 -946 +;
#X obj 946 -981 *;
#X obj 1026 -946 +;
#X obj 1026 -981 *;
#X obj 1106 -946 +;
#X obj 1106 -981 *;
#X obj 1186 -946 +;
#X obj 1186 -981 *;
#X obj 1266 -946 +;
#X obj 1266 -981 *;
#X obj 1346 -946 +;
#X obj 1346 -981 *;
#X obj 1426 -946 +;
#X obj 1426 -981 *;
#X obj 1506 -946 +;
#X obj 1506 -981 *;
#X obj 881 -998 r e2_range;
#X obj 961 -998 r e3_range;
#X obj 1041 -998 r e4_range;
#X obj 1121 -998 r e5_range;
#X obj 1201 -998 r e6_range;
#X obj 1281 -998 r e7_range;
#X obj 1361 -998 r e8_range;
#X obj 1441 -998 r e9_range;
#X obj 1521 -998 r e10_range;
#X obj 786 -813 /;
#X obj 866 -813 /;
#X obj 946 -813 /;
#X obj 1026 -813 /;
#X obj 1106 -813 /;
#X obj 1186 -813 /;
#X obj 1266 -813 /;
#X obj 1346 -813 /;
#X obj 1426 -813 /;
#X obj 1506 -813 /;
#X obj 801 -778 r e1_range;
#X obj 786 -726 +;
#X obj 786 -761 *;
#X obj 866 -726 +;
#X obj 866 -761 *;
#X obj 946 -726 +;
#X obj 946 -761 *;
#X obj 1026 -726 +;
#X obj 1026 -761 *;
#X obj 1106 -726 +;
#X obj 1106 -761 *;
#X obj 1186 -726 +;
#X obj 1186 -761 *;
#X obj 1266 -726 +;
#X obj 1266 -761 *;
#X obj 1346 -726 +;
#X obj 1346 -761 *;
#X obj 1426 -726 +;
#X obj 1426 -761 *;
#X obj 1506 -726 +;
#X obj 1506 -761 *;
#X obj 881 -778 r e2_range;
#X obj 961 -778 r e3_range;
#X obj 1041 -778 r e4_range;
#X obj 1121 -778 r e5_range;
#X obj 1201 -778 r e6_range;
#X obj 1281 -778 r e7_range;
#X obj 1361 -778 r e8_range;
#X obj 1441 -778 r e9_range;
#X obj 1521 -778 r e10_range;
#X obj 786 -583 /;
#X obj 1591 -600 r pitch_range;
#X obj 866 -583 /;
#X obj 946 -583 /;
#X obj 1026 -583 /;
#X obj 1106 -583 /;
#X obj 1186 -583 /;
#X obj 1266 -583 /;
#X obj 1346 -583 /;
#X obj 1426 -583 /;
#X obj 1506 -583 /;
#X obj 801 -548 r e1_range;
#X obj 786 -496 +;
#X obj 786 -531 *;
#X obj 866 -496 +;
#X obj 866 -531 *;
#X obj 946 -496 +;
#X obj 946 -531 *;
#X obj 1026 -496 +;
#X obj 1026 -531 *;
#X obj 1106 -496 +;
#X obj 1106 -531 *;
#X obj 1186 -496 +;
#X obj 1186 -531 *;
#X obj 1266 -496 +;
#X obj 1266 -531 *;
#X obj 1346 -496 +;
#X obj 1346 -531 *;
#X obj 1426 -496 +;
#X obj 1426 -531 *;
#X obj 1506 -496 +;
#X obj 1506 -531 *;
#X obj 881 -548 r e2_range;
#X obj 961 -548 r e3_range;
#X obj 1041 -548 r e4_range;
#X obj 1121 -548 r e5_range;
#X obj 1201 -548 r e6_range;
#X obj 1281 -548 r e7_range;
#X obj 1361 -548 r e8_range;
#X obj 1441 -548 r e9_range;
#X obj 1521 -548 r e10_range;
#X obj 786 -333 /;
#X obj 866 -333 /;
#X obj 946 -333 /;
#X obj 1026 -333 /;
#X obj 1106 -333 /;
#X obj 1186 -333 /;
#X obj 1266 -333 /;
#X obj 1346 -333 /;
#X obj 1426 -333 /;
#X obj 1506 -333 /;
#X obj 801 -298 r e1_range;
#X obj 786 -246 +;
#X obj 786 -281 *;
#X obj 866 -246 +;
#X obj 866 -281 *;
#X obj 946 -246 +;
#X obj 946 -281 *;
#X obj 1026 -246 +;
#X obj 1026 -281 *;
#X obj 1106 -246 +;
#X obj 1106 -281 *;
#X obj 1186 -246 +;
#X obj 1186 -281 *;
#X obj 1266 -246 +;
#X obj 1266 -281 *;
#X obj 1346 -246 +;
#X obj 1346 -281 *;
#X obj 1426 -246 +;
#X obj 1426 -281 *;
#X obj 1506 -246 +;
#X obj 1506 -281 *;
#X obj 881 -298 r e2_range;
#X obj 961 -298 r e3_range;
#X obj 1041 -298 r e4_range;
#X obj 1121 -298 r e5_range;
#X obj 1201 -298 r e6_range;
#X obj 1281 -298 r e7_range;
#X obj 1361 -298 r e8_range;
#X obj 1441 -298 r e9_range;
#X obj 1521 -298 r e10_range;
#X obj 1591 -830 r roll_range;
#X obj 1591 -350 r roll_range;
#X obj 56 -514 r init_vars;
#X text 133 -518 Effect Minimums;
#X obj 129 -480 s e1_min;
#X msg 669 -497 0;
#X msg 429 -497 0;
#X msg 489 -497 0;
#X msg 609 -497 0;
#X obj 189 -480 s e2_min;
#X obj 249 -480 s e3_min;
#X obj 309 -480 s e4_min;
#X obj 369 -480 s e5_min;
#X obj 429 -480 s e6_min;
#X obj 489 -480 s e7_min;
#X obj 549 -480 s e8_min;
#X obj 609 -480 s e9_min;
#X obj 669 -480 s e10_min;
#X obj 56 -434 r init_vars;
#X msg 669 -417 0;
#X msg 609 -417 0;
#X text 133 -438 Effect Maximums;
#X obj 129 -400 s e1_max;
#X obj 189 -400 s e2_max;
#X obj 249 -400 s e3_max;
#X obj 309 -400 s e4_max;
#X obj 369 -400 s e5_max;
#X obj 429 -400 s e6_max;
#X obj 489 -400 s e7_max;
#X obj 549 -400 s e8_max;
#X obj 609 -400 s e9_max;
#X obj 669 -400 s e10_max;
#X obj 63 143 s e1_range;
#X obj 63 126 -;
#X obj 63 109 r e1_max;
#X obj 116 109 r e1_min;
#X obj 801 -963 r e1_min;
#X obj 881 -963 r e2_min;
#X obj 961 -963 r e3_min;
#X obj 1041 -963 r e4_min;
#X obj 1121 -963 r e5_min;
#X obj 1201 -963 r e6_min;
#X obj 1281 -963 r e7_min;
#X obj 1361 -963 r e8_min;
#X obj 1441 -963 r e9_min;
#X obj 1521 -963 r e10_min;
#X obj 801 -743 r e1_min;
#X obj 881 -743 r e2_min;
#X obj 961 -743 r e3_min;
#X obj 1041 -743 r e4_min;
#X obj 1121 -743 r e5_min;
#X obj 1201 -743 r e6_min;
#X obj 1281 -743 r e7_min;
#X obj 1361 -743 r e8_min;
#X obj 1441 -743 r e9_min;
#X obj 1521 -743 r e10_min;
#X obj 801 -513 r e1_min;
#X obj 881 -513 r e2_min;
#X obj 961 -513 r e3_min;
#X obj 1041 -513 r e4_min;
#X obj 1121 -513 r e5_min;
#X obj 1201 -513 r e6_min;
#X obj 1281 -513 r e7_min;
#X obj 1361 -513 r e8_min;
#X obj 1441 -513 r e9_min;
#X obj 1521 -513 r e10_min;
#X obj 801 -263 r e1_min;
#X obj 881 -263 r e2_min;
#X obj 961 -263 r e3_min;
#X obj 1041 -263 r e4_min;
#X obj 1121 -263 r e5_min;
#X obj 1201 -263 r e6_min;
#X obj 1281 -263 r e7_min;
#X obj 1361 -263 r e8_min;
#X obj 1441 -263 r e9_min;
#X obj 1521 -263 r e10_min;
#X obj 173 126 -;
#X obj 283 126 -;
#X obj 393 126 -;
#X obj 503 126 -;
#X obj 63 206 -;
#X obj 173 206 -;
#X obj 283 206 -;
#X obj 393 206 -;
#X obj 503 206 -;
#X obj 173 109 r e2_max;
#X obj 226 109 r e2_min;
#X obj 173 143 s e2_range;
#X obj 283 109 r e3_max;
#X obj 336 109 r e3_min;
#X obj 283 143 s e3_range;
#X obj 393 109 r e4_max;
#X obj 446 109 r e4_min;
#X obj 393 143 s e4_range;
#X obj 503 109 r e5_max;
#X obj 556 109 r e5_min;
#X obj 503 143 s e5_range;
#X obj 63 189 r e6_max;
#X obj 63 223 s e6_range;
#X obj 116 189 r e6_min;
#X obj 173 189 r e7_max;
#X obj 173 223 s e7_range;
#X obj 226 189 r e7_min;
#X obj 283 189 r e8_max;
#X obj 336 189 r e8_min;
#X obj 283 223 s e8_range;
#X obj 393 189 r e9_max;
#X obj 446 189 r e9_min;
#X obj 393 223 s e9_range;
#X obj 503 189 r e10_max;
#X obj 562 189 r e10_min;
#X obj 503 223 s e10_range;
#X floatatom 946 -929 5 0 0 0 - - -;
#X floatatom 1026 -929 5 0 0 0 - - -;
#X floatatom 1106 -929 5 0 0 0 - - -;
#X floatatom 1186 -929 5 0 0 0 - - -;
#X floatatom 1266 -912 5 0 0 0 - - -;
#X floatatom 1426 -929 5 0 0 0 - - -;
#X floatatom 1506 -929 5 0 0 0 - - -;
#X floatatom 946 -709 5 0 0 0 - - -;
#X floatatom 1026 -709 5 0 0 0 - - -;
#X floatatom 1106 -709 5 0 0 0 - - -;
#X floatatom 1186 -709 5 0 0 0 - - -;
#X floatatom 1346 -709 5 0 0 0 - - -;
#X floatatom 1426 -709 5 0 0 0 - - -;
#X floatatom 1506 -709 5 0 0 0 - - -;
#X floatatom 946 -479 5 0 0 0 - - -;
#X floatatom 1026 -479 5 0 0 0 - - -;
#X floatatom 1106 -479 5 0 0 0 - - -;
#X floatatom 1186 -479 5 0 0 0 - - -;
#X floatatom 1346 -479 5 0 0 0 - - -;
#X floatatom 1426 -479 5 0 0 0 - - -;
#X floatatom 1506 -479 5 0 0 0 - - -;
#X floatatom 946 -229 5 0 0 0 - - -;
#X floatatom 1026 -229 5 0 0 0 - - -;
#X floatatom 1106 -229 5 0 0 0 - - -;
#X floatatom 1186 -229 5 0 0 0 - - -;
#X floatatom 1346 -229 5 0 0 0 - - -;
#X floatatom 1426 -229 5 0 0 0 - - -;
#X floatatom 1506 -229 5 0 0 0 - - -;
#X obj 205 -968 vradio 20 1 0 10 left_roll_sel init_left_roll_sel empty
-55 -20 0 16 -262144 -1 -1 1;
#X obj 365 -968 vradio 20 1 0 10 right_pitch_sel init_right_pitch_sel
empty -55 -20 0 16 -262144 -1 -1 2;
#X obj 526 -968 vradio 20 1 0 10 right_roll_sel init_right_roll_sel
empty -55 -20 0 16 -262144 -1 -1 3;
#X obj 128 -573 s init_left_pitch_sel;
#X obj 273 -573 s init_left_roll_sel;
#X obj 411 -573 s init_right_pitch_sel;
#X obj 561 -573 s init_right_roll_sel;
#X obj 786 -1016 + 0.5;
#X obj 866 -1016 + 0.5;
#X obj 946 -1016 + 0.5;
#X obj 1026 -1016 + 0.5;
#X obj 1106 -1016 + 0.5;
#X obj 1186 -1016 + 0.5;
#X obj 1266 -1016 + 0.5;
#X obj 1346 -1016 + 0.5;
#X obj 1426 -1016 + 0.5;
#X obj 1506 -1016 + 0.5;
#X obj 786 -796 + 0.5;
#X obj 866 -796 + 0.5;
#X obj 946 -796 + 0.5;
#X obj 1026 -796 + 0.5;
#X obj 1106 -796 + 0.5;
#X obj 1186 -796 + 0.5;
#X obj 1266 -796 + 0.5;
#X obj 1346 -796 + 0.5;
#X obj 1426 -796 + 0.5;
#X obj 1506 -796 + 0.5;
#X obj 786 -566 + 0.5;
#X obj 866 -566 + 0.5;
#X obj 946 -566 + 0.5;
#X obj 1026 -566 + 0.5;
#X obj 1106 -566 + 0.5;
#X obj 1186 -566 + 0.5;
#X obj 1266 -566 + 0.5;
#X obj 1346 -566 + 0.5;
#X obj 1426 -566 + 0.5;
#X obj 1506 -566 + 0.5;
#X obj 786 -316 + 0.5;
#X obj 866 -316 + 0.5;
#X obj 946 -316 + 0.5;
#X obj 1026 -316 + 0.5;
#X obj 1106 -316 + 0.5;
#X obj 1186 -316 + 0.5;
#X obj 1266 -316 + 0.5;
#X obj 1346 -316 + 0.5;
#X obj 1426 -316 + 0.5;
#X obj 1506 -316 + 0.5;
#X obj 786 -929 i;
#X floatatom 786 -912 5 0 0 0 - - -;
#X obj 866 -929 i;
#X floatatom 866 -912 5 0 0 0 - - -;
#X obj 786 -709 i;
#X floatatom 786 -692 5 0 0 0 - - -;
#X obj 866 -709 i;
#X floatatom 866 -692 5 0 0 0 - - -;
#X obj 786 -479 i;
#X floatatom 786 -462 5 0 0 0 - - -;
#X obj 866 -479 i;
#X floatatom 866 -462 5 0 0 0 - - -;
#X obj 786 -229 i;
#X floatatom 786 -212 5 0 0 0 - - -;
#X obj 866 -229 i;
#X floatatom 866 -212 5 0 0 0 - - -;
#X text 69 -927 Bandpass Frequency;
#X text 70 -907 Duty Cycle;
#X text 69 -886 Reverb Level;
#X text 70 -867 Volume;
#X text 68 -946 Triad Note;
#X text 70 -968 Triad;
#X obj 786 -896 s triad;
#X obj 866 -896 s triad_note;
#X obj 786 -676 s triad;
#X obj 866 -676 s triad_note;
#X obj 786 -446 s triad;
#X obj 866 -446 s triad_note;
#X obj 786 -196 s triad;
#X obj 866 -196 s triad_note;
#X msg 129 -497 0;
#X msg 189 -417 18;
#X msg 189 -497 6;
#X msg 309 -417 0.95;
#X msg 369 -497 0.2;
#X msg 369 -417 0.95;
#X obj 946 -896 s bpf_freq;
#X obj 946 -676 s bpf_freq;
#X obj 946 -446 s bpf_freq;
#X obj 946 -196 s bpf_freq;
#X obj 1026 -896 s pwm_duty_cycle;
#X obj 1026 -676 s pwm_duty_cycle;
#X obj 1026 -446 s pwm_duty_cycle;
#X obj 1026 -196 s pwm_duty_cycle;
#X obj 44 -968 vradio 20 1 0 10 left_pitch_sel init_left_pitch_sel
empty -55 -20 0 16 -262144 -1 -1 0;
#X obj 1106 -913 s wet;
#X obj 1106 -693 s wet;
#X obj 1106 -463 s wet;
#X obj 1106 -213 s wet;
#X obj 1186 -213 s volume;
#X obj 1186 -463 s volume;
#X obj 1186 -693 s volume;
#X obj 1186 -913 s volume;
#X obj 1867 -571 r triad;
#X obj 2306 -446 r triad_note;
#X obj 786 -1050 demux 0 1 2 3 4 5 6 7 8 9;
#X obj 786 -830 demux 0 1 2 3 4 5 6 7 8 9;
#X obj 786 -600 demux 0 1 2 3 4 5 6 7 8 9;
#X obj 786 -350 demux 0 1 2 3 4 5 6 7 8 9;
#X text 229 -925 Bandpass Frequency;
#X text 230 -905 Duty Cycle;
#X text 229 -884 Reverb Level;
#X text 230 -865 Volume;
#X text 228 -944 Triad Note;
#X text 230 -966 Triad;
#X text 389 -926 Bandpass Frequency;
#X text 390 -906 Duty Cycle;
#X text 389 -885 Reverb Level;
#X text 390 -866 Volume;
#X text 388 -945 Triad Note;
#X text 390 -967 Triad;
#X text 549 -926 Bandpass Frequency;
#X text 550 -906 Duty Cycle;
#X text 549 -885 Reverb Level;
#X text 550 -866 Volume;
#X text 548 -945 Triad Note;
#X text 550 -967 Triad;
#X text 70 -847 Note Length;
#X text 230 -847 Note Length;
#X text 390 -847 Note Length;
#X text 550 -847 Note Length;
#X msg 489 -417 5;
#X obj 1266 -929 i;
#X obj 1266 -896 s note_length;
#X floatatom 1266 -692 5 0 0 0 - - -;
#X obj 1266 -709 i;
#X obj 1266 -676 s note_length;
#X floatatom 1266 -462 5 0 0 0 - - -;
#X obj 1266 -479 i;
#X obj 1266 -446 s note_length;
#X floatatom 1266 -212 5 0 0 0 - - -;
#X obj 1266 -229 i;
#X obj 1266 -196 s note_length;
#X obj 2693 -570 r note_length;
#X text 69 -827 Beats Per Minute;
#X text 229 -827 Beats Per Minute;
#X text 389 -827 Beats Per Minute;
#X text 549 -827 Beats Per Minute;
#X floatatom 1346 -912 5 0 0 0 - - -;
#X obj 1346 -929 i;
#X obj 1346 -896 s bpm;
#X floatatom 1346 -676 5 0 0 0 - - -;
#X obj 1346 -693 i;
#X obj 1346 -660 s bpm;
#X floatatom 1346 -446 5 0 0 0 - - -;
#X obj 1346 -463 i;
#X obj 1346 -430 s bpm;
#X floatatom 1346 -196 5 0 0 0 - - -;
#X obj 1346 -213 i;
#X obj 1346 -180 s bpm;
#X msg 549 -497 20;
#X msg 549 -417 260;
#X obj 229 -303 s note_length;
#X msg 126 -179 1;
#X msg 126 -108 1;
#X msg 126 -250 1;
#X obj 126 51 s reverb_state;
#X obj 226 51 s dry;
#X obj 271 51 s wet;
#X obj 316 51 s damping;
#X obj 385 51 s roomsize;
#X obj 460 51 s width;
#X obj 280 -20 s bpf_width;
#X obj 205 -20 s bpf_freq;
#X msg 205 -37 1000;
#X obj 125 -20 s bpf_state;
#X obj 341 -91 s pwm_duty_cycle;
#X obj 236 -91 s pwm_osc_level;
#X obj 126 -91 s pwm_osc_state;
#X obj 126 -162 s sawtooth_osc_state;
#X obj 266 -162 s sawtooth_osc_level;
#X obj 126 -233 s sine_osc_state;
#X obj 236 -233 s sine_osc_level;
#X obj 126 -303 s volume;
#X obj 187 -303 s key;
#X obj 321 -303 s bpm;
#X obj 365 -303 s triad_note;
#X obj 475 -303 s triad;
#X msg 429 -417 0.1;
#X msg 126 -320 0.08;
#X msg 2302 -798 \$1 100;
#X msg 249 -497 2000;
#X msg 249 -417 10000;
#X msg 280 -37 3.5;
#X msg 309 -497 0.2;
#X msg 129 -417 7;
#X connect 0 0 10 0;
#X connect 2 0 4 0;
#X connect 3 0 267 0;
#X connect 3 0 268 0;
#X connect 4 0 93 0;
#X connect 5 0 159 0;
#X connect 6 0 7 0;
#X connect 7 0 0 0;
#X connect 11 0 20 0;
#X connect 12 0 1 0;
#X connect 12 0 16 0;
#X connect 12 0 164 0;
#X connect 12 0 181 0;
#X connect 17 0 2 0;
#X connect 18 0 269 1;
#X connect 19 0 4 1;
#X connect 20 0 26 0;
#X connect 23 0 176 0;
#X connect 23 0 171 0;
#X connect 24 0 186 0;
#X connect 25 0 182 0;
#X connect 26 0 22 0;
#X connect 27 0 26 1;
#X connect 28 0 31 0;
#X connect 29 0 33 0;
#X connect 31 0 29 0;
#X connect 32 0 29 1;
#X connect 34 0 36 0;
#X connect 35 0 38 0;
#X connect 36 0 45 0;
#X connect 39 0 184 0;
#X connect 40 0 35 1;
#X connect 41 0 188 0;
#X connect 43 0 784 0;
#X connect 44 0 785 0;
#X connect 45 0 35 0;
#X connect 46 0 270 0;
#X connect 46 0 154 0;
#X connect 46 0 266 0;
#X connect 46 0 797 0;
#X connect 46 0 249 0;
#X connect 46 0 287 0;
#X connect 48 0 244 0;
#X connect 48 0 196 0;
#X connect 48 0 219 0;
#X connect 49 0 778 0;
#X connect 50 0 779 0;
#X connect 51 0 777 0;
#X connect 52 0 217 0;
#X connect 52 1 155 1;
#X connect 52 1 218 0;
#X connect 53 0 52 0;
#X connect 54 0 52 0;
#X connect 55 0 52 0;
#X connect 56 0 52 0;
#X connect 57 0 52 0;
#X connect 58 0 57 0;
#X connect 59 0 53 0;
#X connect 60 0 54 0;
#X connect 61 0 55 0;
#X connect 62 0 56 0;
#X connect 63 0 12 0;
#X connect 64 0 67 1;
#X connect 65 0 67 1;
#X connect 66 0 67 1;
#X connect 67 0 68 0;
#X connect 68 0 269 0;
#X connect 69 0 788 0;
#X connect 70 0 790 0;
#X connect 71 0 67 1;
#X connect 72 0 67 1;
#X connect 73 0 67 1;
#X connect 74 0 67 1;
#X connect 76 0 67 1;
#X connect 77 0 96 0;
#X connect 77 0 108 0;
#X connect 77 0 107 0;
#X connect 78 0 771 0;
#X connect 78 0 69 0;
#X connect 79 0 772 0;
#X connect 79 0 44 0;
#X connect 79 0 43 0;
#X connect 80 0 86 0;
#X connect 80 0 193 0;
#X connect 80 0 194 0;
#X connect 80 0 51 0;
#X connect 80 0 49 0;
#X connect 80 0 50 0;
#X connect 84 0 70 0;
#X connect 84 0 773 0;
#X connect 86 0 774 0;
#X connect 87 0 88 0;
#X connect 87 0 782 0;
#X connect 87 0 801 0;
#X connect 88 0 783 0;
#X connect 90 0 67 0;
#X connect 92 0 98 0;
#X connect 93 0 209 0;
#X connect 93 0 214 0;
#X connect 94 0 77 0;
#X connect 95 0 77 1;
#X connect 96 0 77 1;
#X connect 97 0 92 0;
#X connect 97 0 125 0;
#X connect 99 0 100 0;
#X connect 99 0 101 0;
#X connect 99 0 102 0;
#X connect 99 0 103 0;
#X connect 99 0 104 0;
#X connect 99 0 105 0;
#X connect 99 0 106 0;
#X connect 99 0 108 1;
#X connect 99 0 107 1;
#X connect 99 0 117 0;
#X connect 99 0 122 0;
#X connect 99 0 124 0;
#X connect 100 0 109 1;
#X connect 101 0 110 1;
#X connect 102 0 111 1;
#X connect 103 0 112 1;
#X connect 104 0 113 1;
#X connect 105 0 114 1;
#X connect 106 0 115 1;
#X connect 107 0 90 0;
#X connect 108 0 64 0;
#X connect 108 1 109 0;
#X connect 109 0 65 0;
#X connect 109 1 110 0;
#X connect 110 0 66 0;
#X connect 110 1 111 0;
#X connect 111 0 71 0;
#X connect 111 1 112 0;
#X connect 112 0 72 0;
#X connect 112 1 113 0;
#X connect 113 0 73 0;
#X connect 113 1 114 0;
#X connect 114 0 74 0;
#X connect 114 1 115 0;
#X connect 115 0 76 0;
#X connect 115 1 116 0;
#X connect 116 0 118 0;
#X connect 116 1 121 0;
#X connect 117 0 116 1;
#X connect 118 0 67 1;
#X connect 119 0 67 1;
#X connect 120 0 67 1;
#X connect 121 0 119 0;
#X connect 121 1 123 0;
#X connect 122 0 121 1;
#X connect 123 0 120 0;
#X connect 124 0 123 1;
#X connect 125 0 126 0;
#X connect 125 0 92 0;
#X connect 126 0 91 0;
#X connect 127 0 148 0;
#X connect 127 0 92 0;
#X connect 128 0 229 0;
#X connect 128 0 201 0;
#X connect 133 0 135 0;
#X connect 133 0 198 0;
#X connect 134 0 133 0;
#X connect 134 0 198 0;
#X connect 135 0 197 0;
#X connect 137 0 139 0;
#X connect 137 0 198 0;
#X connect 138 0 137 0;
#X connect 138 0 198 0;
#X connect 139 0 197 0;
#X connect 140 0 142 0;
#X connect 140 0 198 0;
#X connect 141 0 140 0;
#X connect 141 0 198 0;
#X connect 142 0 197 0;
#X connect 143 0 145 0;
#X connect 143 0 92 0;
#X connect 144 0 143 0;
#X connect 144 0 92 0;
#X connect 145 0 91 0;
#X connect 147 0 92 0;
#X connect 147 0 127 0;
#X connect 148 0 91 0;
#X connect 149 0 151 0;
#X connect 149 0 92 0;
#X connect 150 0 149 0;
#X connect 150 0 92 0;
#X connect 151 0 91 0;
#X connect 153 0 167 0;
#X connect 154 0 794 0;
#X connect 156 0 155 0;
#X connect 157 0 155 0;
#X connect 158 0 155 0;
#X connect 159 0 160 0;
#X connect 160 0 23 1;
#X connect 161 0 23 0;
#X connect 162 0 163 0;
#X connect 162 0 166 0;
#X connect 163 0 162 1;
#X connect 164 0 162 0;
#X connect 166 0 181 1;
#X connect 167 0 228 0;
#X connect 168 0 169 0;
#X connect 169 0 47 0;
#X connect 170 0 798 0;
#X connect 171 0 177 0;
#X connect 172 0 171 1;
#X connect 173 0 171 2;
#X connect 174 0 173 0;
#X connect 175 0 174 0;
#X connect 176 0 52 1;
#X connect 176 0 52 0;
#X connect 177 0 52 0;
#X connect 177 0 52 1;
#X connect 178 0 179 0;
#X connect 178 0 180 0;
#X connect 179 0 177 1;
#X connect 180 0 176 1;
#X connect 181 0 47 0;
#X connect 182 0 161 0;
#X connect 183 0 182 1;
#X connect 184 0 161 0;
#X connect 185 0 184 1;
#X connect 186 0 161 0;
#X connect 187 0 186 1;
#X connect 188 0 189 0;
#X connect 189 0 45 1;
#X connect 190 0 192 0;
#X connect 191 0 190 0;
#X connect 192 0 52 0;
#X connect 193 0 775 0;
#X connect 194 0 776 0;
#X connect 195 0 231 0;
#X connect 195 0 201 0;
#X connect 198 0 199 0;
#X connect 201 0 202 0;
#X connect 203 0 235 0;
#X connect 203 0 201 0;
#X connect 204 0 237 0;
#X connect 204 0 201 0;
#X connect 205 0 233 0;
#X connect 205 0 201 0;
#X connect 206 0 238 0;
#X connect 207 0 241 0;
#X connect 207 0 201 0;
#X connect 208 0 243 0;
#X connect 208 0 201 0;
#X connect 209 0 210 0;
#X connect 209 0 250 0;
#X connect 210 0 209 1;
#X connect 211 0 214 1;
#X connect 212 0 213 0;
#X connect 212 0 263 0;
#X connect 213 0 212 1;
#X connect 214 0 212 0;
#X connect 214 0 95 0;
#X connect 214 0 94 0;
#X connect 216 0 228 0;
#X connect 216 1 230 0;
#X connect 216 2 232 0;
#X connect 216 3 234 0;
#X connect 216 4 236 0;
#X connect 216 5 239 0;
#X connect 216 6 240 0;
#X connect 216 7 242 0;
#X connect 217 0 42 0;
#X connect 218 0 42 1;
#X connect 228 0 128 0;
#X connect 228 0 201 0;
#X connect 229 0 200 0;
#X connect 230 0 195 0;
#X connect 230 0 201 0;
#X connect 231 0 200 0;
#X connect 232 0 205 0;
#X connect 232 0 201 0;
#X connect 233 0 200 0;
#X connect 234 0 203 0;
#X connect 234 0 201 0;
#X connect 235 0 200 0;
#X connect 236 0 204 0;
#X connect 236 0 201 0;
#X connect 237 0 200 0;
#X connect 238 0 200 0;
#X connect 239 0 206 0;
#X connect 239 0 201 0;
#X connect 240 0 207 0;
#X connect 240 0 201 0;
#X connect 241 0 200 0;
#X connect 242 0 208 0;
#X connect 242 0 201 0;
#X connect 243 0 200 0;
#X connect 245 0 251 0;
#X connect 245 0 252 0;
#X connect 246 0 19 0;
#X connect 249 0 793 0;
#X connect 250 0 211 0;
#X connect 251 0 246 0;
#X connect 252 0 19 1;
#X connect 253 0 250 1;
#X connect 254 0 250 1;
#X connect 255 0 250 1;
#X connect 256 0 250 1;
#X connect 257 0 250 1;
#X connect 258 0 250 1;
#X connect 259 0 250 1;
#X connect 260 0 250 1;
#X connect 261 0 250 1;
#X connect 263 0 215 0;
#X connect 264 0 253 0;
#X connect 264 1 254 0;
#X connect 264 2 255 0;
#X connect 264 3 256 0;
#X connect 264 4 257 0;
#X connect 264 5 258 0;
#X connect 264 6 259 0;
#X connect 264 7 260 0;
#X connect 266 0 770 0;
#X connect 267 0 18 0;
#X connect 268 0 267 1;
#X connect 269 0 6 0;
#X connect 270 0 792 0;
#X connect 271 0 713 0;
#X connect 272 0 714 0;
#X connect 273 0 715 0;
#X connect 274 0 716 0;
#X connect 275 0 715 1;
#X connect 276 0 714 1;
#X connect 277 0 713 1;
#X connect 278 0 716 1;
#X connect 287 0 795 0;
#X connect 288 0 289 0;
#X connect 288 0 291 0;
#X connect 288 0 293 0;
#X connect 288 0 294 0;
#X connect 288 0 307 0;
#X connect 288 0 308 0;
#X connect 289 0 290 0;
#X connect 291 0 292 0;
#X connect 293 0 295 0;
#X connect 294 0 296 0;
#X connect 299 0 300 0;
#X connect 299 0 302 0;
#X connect 299 0 303 0;
#X connect 299 0 304 0;
#X connect 300 0 614 0;
#X connect 302 0 615 0;
#X connect 303 0 616 0;
#X connect 304 0 617 0;
#X connect 307 0 305 0;
#X connect 308 0 306 0;
#X connect 309 0 618 0;
#X connect 310 0 309 1;
#X connect 310 0 311 1;
#X connect 310 0 313 1;
#X connect 310 0 315 1;
#X connect 310 0 316 1;
#X connect 310 0 317 1;
#X connect 310 0 318 1;
#X connect 310 0 319 1;
#X connect 310 0 314 1;
#X connect 310 0 312 1;
#X connect 311 0 619 0;
#X connect 312 0 620 0;
#X connect 313 0 621 0;
#X connect 314 0 622 0;
#X connect 315 0 623 0;
#X connect 316 0 624 0;
#X connect 317 0 625 0;
#X connect 318 0 626 0;
#X connect 319 0 627 0;
#X connect 320 0 322 1;
#X connect 321 0 658 0;
#X connect 322 0 321 0;
#X connect 323 0 660 0;
#X connect 324 0 323 0;
#X connect 325 0 583 0;
#X connect 326 0 325 0;
#X connect 327 0 584 0;
#X connect 328 0 327 0;
#X connect 329 0 585 0;
#X connect 330 0 329 0;
#X connect 331 0 586 0;
#X connect 332 0 331 0;
#X connect 333 0 740 0;
#X connect 334 0 333 0;
#X connect 335 0 757 0;
#X connect 336 0 335 0;
#X connect 337 0 588 0;
#X connect 338 0 337 0;
#X connect 339 0 589 0;
#X connect 340 0 339 0;
#X connect 341 0 324 1;
#X connect 342 0 326 1;
#X connect 343 0 328 1;
#X connect 344 0 330 1;
#X connect 345 0 332 1;
#X connect 346 0 334 1;
#X connect 347 0 336 1;
#X connect 348 0 338 1;
#X connect 349 0 340 1;
#X connect 350 0 628 0;
#X connect 351 0 629 0;
#X connect 352 0 630 0;
#X connect 353 0 631 0;
#X connect 354 0 632 0;
#X connect 355 0 633 0;
#X connect 356 0 634 0;
#X connect 357 0 635 0;
#X connect 358 0 636 0;
#X connect 359 0 637 0;
#X connect 360 0 362 1;
#X connect 361 0 662 0;
#X connect 362 0 361 0;
#X connect 363 0 664 0;
#X connect 364 0 363 0;
#X connect 365 0 590 0;
#X connect 366 0 365 0;
#X connect 367 0 591 0;
#X connect 368 0 367 0;
#X connect 369 0 592 0;
#X connect 370 0 369 0;
#X connect 371 0 593 0;
#X connect 372 0 371 0;
#X connect 373 0 743 0;
#X connect 374 0 373 0;
#X connect 375 0 594 0;
#X connect 376 0 375 0;
#X connect 377 0 595 0;
#X connect 378 0 377 0;
#X connect 379 0 596 0;
#X connect 380 0 379 0;
#X connect 381 0 364 1;
#X connect 382 0 366 1;
#X connect 383 0 368 1;
#X connect 384 0 370 1;
#X connect 385 0 372 1;
#X connect 386 0 374 1;
#X connect 387 0 376 1;
#X connect 388 0 378 1;
#X connect 389 0 380 1;
#X connect 390 0 638 0;
#X connect 391 0 390 1;
#X connect 391 0 392 1;
#X connect 391 0 394 1;
#X connect 391 0 396 1;
#X connect 391 0 397 1;
#X connect 391 0 398 1;
#X connect 391 0 399 1;
#X connect 391 0 400 1;
#X connect 391 0 395 1;
#X connect 391 0 393 1;
#X connect 392 0 639 0;
#X connect 393 0 640 0;
#X connect 394 0 641 0;
#X connect 395 0 642 0;
#X connect 396 0 643 0;
#X connect 397 0 644 0;
#X connect 398 0 645 0;
#X connect 399 0 646 0;
#X connect 400 0 647 0;
#X connect 401 0 403 1;
#X connect 402 0 666 0;
#X connect 403 0 402 0;
#X connect 404 0 668 0;
#X connect 405 0 404 0;
#X connect 406 0 597 0;
#X connect 407 0 406 0;
#X connect 408 0 598 0;
#X connect 409 0 408 0;
#X connect 410 0 599 0;
#X connect 411 0 410 0;
#X connect 412 0 600 0;
#X connect 413 0 412 0;
#X connect 414 0 746 0;
#X connect 415 0 414 0;
#X connect 416 0 601 0;
#X connect 417 0 416 0;
#X connect 418 0 602 0;
#X connect 419 0 418 0;
#X connect 420 0 603 0;
#X connect 421 0 420 0;
#X connect 422 0 405 1;
#X connect 423 0 407 1;
#X connect 424 0 409 1;
#X connect 425 0 411 1;
#X connect 426 0 413 1;
#X connect 427 0 415 1;
#X connect 428 0 417 1;
#X connect 429 0 419 1;
#X connect 430 0 421 1;
#X connect 431 0 648 0;
#X connect 432 0 649 0;
#X connect 433 0 650 0;
#X connect 434 0 651 0;
#X connect 435 0 652 0;
#X connect 436 0 653 0;
#X connect 437 0 654 0;
#X connect 438 0 655 0;
#X connect 439 0 656 0;
#X connect 440 0 657 0;
#X connect 441 0 443 1;
#X connect 442 0 670 0;
#X connect 443 0 442 0;
#X connect 444 0 672 0;
#X connect 445 0 444 0;
#X connect 446 0 604 0;
#X connect 447 0 446 0;
#X connect 448 0 605 0;
#X connect 449 0 448 0;
#X connect 450 0 606 0;
#X connect 451 0 450 0;
#X connect 452 0 607 0;
#X connect 453 0 452 0;
#X connect 454 0 749 0;
#X connect 455 0 454 0;
#X connect 456 0 608 0;
#X connect 457 0 456 0;
#X connect 458 0 609 0;
#X connect 459 0 458 0;
#X connect 460 0 610 0;
#X connect 461 0 460 0;
#X connect 462 0 445 1;
#X connect 463 0 447 1;
#X connect 464 0 449 1;
#X connect 465 0 451 1;
#X connect 466 0 453 1;
#X connect 467 0 455 1;
#X connect 468 0 457 1;
#X connect 469 0 459 1;
#X connect 470 0 461 1;
#X connect 471 0 350 1;
#X connect 471 0 351 1;
#X connect 471 0 353 1;
#X connect 471 0 355 1;
#X connect 471 0 356 1;
#X connect 471 0 357 1;
#X connect 471 0 358 1;
#X connect 471 0 359 1;
#X connect 471 0 354 1;
#X connect 471 0 352 1;
#X connect 472 0 431 1;
#X connect 472 0 432 1;
#X connect 472 0 434 1;
#X connect 472 0 436 1;
#X connect 472 0 437 1;
#X connect 472 0 438 1;
#X connect 472 0 439 1;
#X connect 472 0 440 1;
#X connect 472 0 435 1;
#X connect 472 0 433 1;
#X connect 473 0 688 0;
#X connect 473 0 690 0;
#X connect 473 0 799 0;
#X connect 473 0 802 0;
#X connect 473 0 476 0;
#X connect 473 0 692 0;
#X connect 473 0 477 0;
#X connect 473 0 478 0;
#X connect 473 0 768 0;
#X connect 473 0 479 0;
#X connect 476 0 488 0;
#X connect 477 0 484 0;
#X connect 478 0 485 0;
#X connect 479 0 487 0;
#X connect 489 0 803 0;
#X connect 489 0 689 0;
#X connect 489 0 800 0;
#X connect 489 0 691 0;
#X connect 489 0 490 0;
#X connect 489 0 693 0;
#X connect 489 0 796 0;
#X connect 489 0 739 0;
#X connect 489 0 769 0;
#X connect 489 0 491 0;
#X connect 490 0 502 0;
#X connect 491 0 501 0;
#X connect 504 0 503 0;
#X connect 505 0 504 0;
#X connect 506 0 504 1;
#X connect 507 0 321 1;
#X connect 508 0 323 1;
#X connect 509 0 325 1;
#X connect 510 0 327 1;
#X connect 511 0 329 1;
#X connect 512 0 331 1;
#X connect 513 0 333 1;
#X connect 514 0 335 1;
#X connect 515 0 337 1;
#X connect 516 0 339 1;
#X connect 517 0 361 1;
#X connect 518 0 363 1;
#X connect 519 0 365 1;
#X connect 520 0 367 1;
#X connect 521 0 369 1;
#X connect 522 0 371 1;
#X connect 523 0 373 1;
#X connect 524 0 375 1;
#X connect 525 0 377 1;
#X connect 526 0 379 1;
#X connect 527 0 402 1;
#X connect 528 0 404 1;
#X connect 529 0 406 1;
#X connect 530 0 408 1;
#X connect 531 0 410 1;
#X connect 532 0 412 1;
#X connect 533 0 414 1;
#X connect 534 0 416 1;
#X connect 535 0 418 1;
#X connect 536 0 420 1;
#X connect 537 0 442 1;
#X connect 538 0 444 1;
#X connect 539 0 446 1;
#X connect 540 0 448 1;
#X connect 541 0 450 1;
#X connect 542 0 452 1;
#X connect 543 0 454 1;
#X connect 544 0 456 1;
#X connect 545 0 458 1;
#X connect 546 0 460 1;
#X connect 547 0 558 0;
#X connect 548 0 561 0;
#X connect 549 0 564 0;
#X connect 550 0 567 0;
#X connect 551 0 569 0;
#X connect 552 0 572 0;
#X connect 553 0 576 0;
#X connect 554 0 579 0;
#X connect 555 0 582 0;
#X connect 556 0 547 0;
#X connect 557 0 547 1;
#X connect 559 0 548 0;
#X connect 560 0 548 1;
#X connect 562 0 549 0;
#X connect 563 0 549 1;
#X connect 565 0 550 0;
#X connect 566 0 550 1;
#X connect 568 0 551 0;
#X connect 570 0 551 1;
#X connect 571 0 552 0;
#X connect 573 0 552 1;
#X connect 574 0 553 0;
#X connect 575 0 553 1;
#X connect 577 0 554 0;
#X connect 578 0 554 1;
#X connect 580 0 555 0;
#X connect 581 0 555 1;
#X connect 583 0 694 0;
#X connect 584 0 698 0;
#X connect 585 0 703 0;
#X connect 586 0 710 0;
#X connect 587 0 741 0;
#X connect 590 0 695 0;
#X connect 591 0 699 0;
#X connect 592 0 704 0;
#X connect 593 0 709 0;
#X connect 594 0 760 0;
#X connect 597 0 696 0;
#X connect 598 0 700 0;
#X connect 599 0 705 0;
#X connect 600 0 708 0;
#X connect 601 0 763 0;
#X connect 604 0 697 0;
#X connect 605 0 701 0;
#X connect 606 0 706 0;
#X connect 607 0 707 0;
#X connect 608 0 766 0;
#X connect 618 0 322 0;
#X connect 619 0 324 0;
#X connect 620 0 326 0;
#X connect 621 0 328 0;
#X connect 622 0 330 0;
#X connect 623 0 332 0;
#X connect 624 0 334 0;
#X connect 625 0 336 0;
#X connect 626 0 338 0;
#X connect 627 0 340 0;
#X connect 628 0 362 0;
#X connect 629 0 364 0;
#X connect 630 0 366 0;
#X connect 631 0 368 0;
#X connect 632 0 370 0;
#X connect 633 0 372 0;
#X connect 634 0 374 0;
#X connect 635 0 376 0;
#X connect 636 0 378 0;
#X connect 637 0 380 0;
#X connect 638 0 403 0;
#X connect 639 0 405 0;
#X connect 640 0 407 0;
#X connect 641 0 409 0;
#X connect 642 0 411 0;
#X connect 643 0 413 0;
#X connect 644 0 415 0;
#X connect 645 0 417 0;
#X connect 646 0 419 0;
#X connect 647 0 421 0;
#X connect 648 0 443 0;
#X connect 649 0 445 0;
#X connect 650 0 447 0;
#X connect 651 0 449 0;
#X connect 652 0 451 0;
#X connect 653 0 453 0;
#X connect 654 0 455 0;
#X connect 655 0 457 0;
#X connect 656 0 459 0;
#X connect 657 0 461 0;
#X connect 658 0 659 0;
#X connect 659 0 680 0;
#X connect 660 0 661 0;
#X connect 661 0 681 0;
#X connect 662 0 663 0;
#X connect 663 0 682 0;
#X connect 664 0 665 0;
#X connect 665 0 683 0;
#X connect 666 0 667 0;
#X connect 667 0 684 0;
#X connect 668 0 669 0;
#X connect 669 0 685 0;
#X connect 670 0 671 0;
#X connect 671 0 686 0;
#X connect 672 0 673 0;
#X connect 673 0 687 0;
#X connect 688 0 475 0;
#X connect 689 0 494 0;
#X connect 690 0 480 0;
#X connect 691 0 496 0;
#X connect 692 0 483 0;
#X connect 693 0 497 0;
#X connect 711 0 216 0;
#X connect 712 0 94 0;
#X connect 713 0 309 0;
#X connect 713 1 311 0;
#X connect 713 2 312 0;
#X connect 713 3 313 0;
#X connect 713 4 314 0;
#X connect 713 5 315 0;
#X connect 713 6 316 0;
#X connect 713 7 317 0;
#X connect 713 8 318 0;
#X connect 713 9 319 0;
#X connect 714 0 350 0;
#X connect 714 1 351 0;
#X connect 714 2 352 0;
#X connect 714 3 353 0;
#X connect 714 4 354 0;
#X connect 714 5 355 0;
#X connect 714 6 356 0;
#X connect 714 7 357 0;
#X connect 714 8 358 0;
#X connect 714 9 359 0;
#X connect 715 0 390 0;
#X connect 715 1 392 0;
#X connect 715 2 393 0;
#X connect 715 3 394 0;
#X connect 715 4 395 0;
#X connect 715 5 396 0;
#X connect 715 6 397 0;
#X connect 715 7 398 0;
#X connect 715 8 399 0;
#X connect 715 9 400 0;
#X connect 716 0 431 0;
#X connect 716 1 432 0;
#X connect 716 2 433 0;
#X connect 716 3 434 0;
#X connect 716 4 435 0;
#X connect 716 5 436 0;
#X connect 716 6 437 0;
#X connect 716 7 438 0;
#X connect 716 8 439 0;
#X connect 716 9 440 0;
#X connect 739 0 499 0;
#X connect 740 0 587 0;
#X connect 742 0 744 0;
#X connect 743 0 742 0;
#X connect 745 0 747 0;
#X connect 746 0 745 0;
#X connect 748 0 750 0;
#X connect 749 0 748 0;
#X connect 751 0 264 0;
#X connect 756 0 758 0;
#X connect 757 0 756 0;
#X connect 759 0 761 0;
#X connect 760 0 759 0;
#X connect 762 0 764 0;
#X connect 763 0 762 0;
#X connect 765 0 767 0;
#X connect 766 0 765 0;
#X connect 768 0 486 0;
#X connect 769 0 500 0;
#X connect 771 0 787 0;
#X connect 772 0 786 0;
#X connect 773 0 789 0;
#X connect 782 0 781 0;
#X connect 796 0 498 0;
#X connect 797 0 791 0;
#X connect 798 0 172 0;
#X connect 799 0 481 0;
#X connect 800 0 495 0;
#X connect 801 0 780 0;
#X connect 802 0 482 0;
#X connect 803 0 493 0;
#X coords 0 714 1 713 85 60 0;
