#N canvas 65 486 1301 714 10;
#X obj 2446 -19 mtof;
#X msg 310 -1081 \; pd dsp \$1;
#X obj 2657 -592 tgl 15 0 empty empty empty 17 7 0 10 -262144 -1 -1
0 1;
#X obj 2474 -147 r key;
#X obj 2657 -568 metro;
#X obj 2602 -833 r volume;
#X obj 2446 -50 +;
#X floatatom 2446 -33 5 0 0 0 - - -;
#X text 2457 -893 Audio Output;
#X text 2654 -638 Metronome;
#X obj 2446 -2 s~ osc_freq;
#X obj 2603 -1053 r~ osc_freq;
#X obj 257 -1126 tgl 15 0 empty empty empty 17 7 0 10 -262144 -1 -1
0 1;
#X text 1829 -1070 Create Scales;
#X text 253 -1165 Turn Audio On;
#X text 2553 -595 Metronome On/Off;
#X obj 257 -1081 s wakeup;
#X obj 2657 -619 r wakeup;
#X obj 2474 -93 +;
#X obj 2717 -585 /;
#X obj 2603 -1036 osc~;
#X text 2600 -1072 Sine Oscillator;
#X obj 2603 -1002 s~ sine_osc;
#X obj 2580 -781 *~;
#X obj 2443 -866 r~ sine_osc;
#X obj 2627 -866 r~ sawtooth_osc;
#X obj 2603 -1019 *~;
#X obj 2631 -1036 r sine_osc_level;
#X obj 2753 -1054 r~ osc_freq;
#X obj 2753 -1020 *~;
#X text 2750 -1073 Sawtooth Oscillator;
#X obj 2753 -1037 phasor~;
#X obj 2799 -1037 r sawtooth_osc_level;
#X obj 2753 -1006 s~ sawtooth_osc;
#X obj 2452 -1053 r~ osc_freq;
#X obj 2453 -933 *~;
#X obj 2452 -1036 phasor~;
#X text 2449 -1072 PWM Oscillator;
#X obj 2453 -915 s~ pwm_osc;
#X obj 2852 -866 r~ pwm_osc;
#X obj 2485 -950 r pwm_osc_level;
#X obj 2468 -1002 r pwm_duty_cycle;
#X obj 2462 -694 dac~;
#X msg 341 -108 0.5;
#X msg 236 -108 0.5;
#X obj 2453 -951 >~;
#X obj 56 -337 r init_vars;
#X obj 137 -1044 s init_vars;
#X obj 1835 -1053 r init_vars;
#X msg 385 34 0.85;
#X msg 460 34 1;
#X msg 316 34 0.5;
#X obj 2580 -729 freeverb~;
#X msg 2684 -746 wet \$1;
#X msg 2774 -746 damping \$1;
#X msg 2844 -746 roomsize \$1;
#X msg 2920 -746 width \$1;
#X msg 2729 -746 dry \$1;
#X obj 2729 -763 r dry;
#X obj 2684 -763 r wet;
#X obj 2774 -763 r damping;
#X obj 2844 -763 r roomsize;
#X obj 2920 -763 r width;
#X obj 257 -1147 r onOff;
#X msg 2576 -195 0;
#X msg 2603 -195 12;
#X msg 2630 -195 24;
#X obj 2446 -178 pack;
#X obj 2446 -107 +;
#X msg 266 -179 0.3;
#X msg 236 -250 0.45;
#X msg 2657 -195 36;
#X msg 2684 -195 48;
#X msg 2711 -195 60;
#X msg 2738 -195 72;
#X obj 1835 -889 table major_scale 7;
#X msg 2765 -195 84;
#X obj 2576 -399 spigot;
#X obj 56 -196 r init_vars;
#X obj 55 -125 r init_vars;
#X obj 55 17 r init_vars;
#X text 130 15 Reverb;
#X text 129 -197 Sawtooth Oscillator;
#X text 127 -126 PWM Osicillator;
#X obj 56 -267 r init_vars;
#X text 129 -269 Sine Oscillator;
#X msg 126 34 1;
#X obj 55 -54 r init_vars;
#X msg 125 -37 1;
#X text 130 -55 Bandpass Filter;
#X obj 2446 -365 tabread scale;
#X obj 1850 -629 arraycopy scale;
#X obj 1834 -611 arraysize;
#X obj 2657 -551 bng 15 250 50 0 empty empty empty 17 7 0 10 -262144
-1 -1;
#X floatatom 2426 -415 5 0 0 0 - - -;
#X msg 2657 -416 1;
#X msg 2609 -416 0;
#X msg 1834 -767 set major_scale;
#X obj 1834 -594 s scale_size;
#X obj 2733 -399 r scale_size;
#X obj 2630 -382 * 2;
#X obj 2657 -365 * 3;
#X obj 2684 -348 * 4;
#X obj 2711 -331 * 5;
#X obj 2738 -314 * 6;
#X obj 2765 -297 * 7;
#X obj 2792 -280 * 8;
#X obj 2542 -382 %;
#X obj 2576 -382 moses;
#X obj 2603 -365 moses;
#X obj 2630 -348 moses;
#X obj 2657 -331 moses;
#X obj 2684 -314 moses;
#X obj 2711 -297 moses;
#X obj 2738 -280 moses;
#X obj 2765 -263 moses;
#X obj 2792 -246 moses;
#X obj 2819 -263 * 9;
#X msg 2792 -195 96;
#X msg 2819 -195 108;
#X msg 2846 -195 120;
#X obj 2819 -229 moses;
#X obj 2846 -246 * 10;
#X obj 2846 -212 moses;
#X obj 2873 -229 * 11;
#X obj 1834 -749 bng 15 250 50 0 empty empty empty 17 7 0 10 -262144
-1 -1;
#X msg 1850 -749 copy major_scale;
#X obj 1834 -713 bng 15 250 50 0 empty empty empty 17 7 0 10 -262144
-1 -1;
#X obj 2149 -519 bng 15 250 50 0 empty empty empty 17 7 0 10 -262144
-1 -1;
#X obj 2285 -909 table one_five 2;
#X obj 1934 -1059 table scale 11;
#X obj 2285 -889 table one_four 2;
#X obj 1835 -909 table chromatic 11;
#X obj 2287 -805 bng 15 250 50 0 empty empty empty 17 7 0 10 -262144
-1 -1;
#X msg 2287 -823 set one_five;
#X msg 2303 -805 copy one_five;
#X obj 2285 -929 table octave 1;
#X obj 2287 -769 bng 15 250 50 0 empty empty empty 17 7 0 10 -262144
-1 -1;
#X msg 2287 -787 set one_four;
#X msg 2303 -769 copy one_four;
#X obj 2287 -841 bng 15 250 50 0 empty empty empty 17 7 0 10 -262144
-1 -1;
#X msg 2287 -859 set octave;
#X msg 2303 -841 copy octave;
#X obj 1834 -785 bng 15 250 50 0 empty empty empty 17 7 0 10 -262144
-1 -1;
#X msg 1834 -803 set chromatic;
#X msg 1850 -785 copy chromatic;
#X obj 1835 -869 table nat_minor_scale 7;
#X msg 1834 -731 set nat_minor_scale;
#X msg 1850 -713 copy nat_minor_scale;
#X obj 1834 -677 bng 15 250 50 0 empty empty empty 17 7 0 10 -262144
-1 -1;
#X msg 1834 -695 set har_minor_scale;
#X msg 1850 -677 copy har_minor_scale;
#X obj 1835 -849 table har_minor_scale 7;
#X obj 2120 -573 r init_vars;
#X msg 365 -320 12;
#X obj 2639 -711 writesf~ 2;
#X msg 2946 -729 start;
#X msg 2995 -729 stop;
#X msg 2639 -729 open /home/scheiblk/Documents/test_fave_file.wav;
#X msg 2595 -815 \$1 50;
#X obj 2595 -798 line~;
#X obj 2580 -833 +~;
#X obj 191 -1095 f;
#X obj 229 -1095 + 1;
#X obj 191 -1111 bng 15 250 50 0 empty empty empty 17 7 0 10 -262144
-1 -1;
#X obj 191 -1078 == 0;
#X obj 2121 -552 bng 15 250 50 0 empty empty empty 17 7 0 10 -262144
-1 -1;
#X obj 137 -1095 loadbang;
#X msg 137 -1078 1;
#X obj 2422 -815 r bpf_freq;
#X obj 2580 -764 bp~;
#X obj 2422 -781 line;
#X obj 2494 -781 line;
#X msg 2494 -798 \$1 50;
#X obj 2494 -815 r bpf_width;
#X obj 2627 -747 spigot~;
#X obj 2580 -747 spigot~;
#X obj 2603 -781 r bpf_state;
#X obj 2616 -764 == 0;
#X obj 2645 -764 == 1;
#X obj 137 -1061 spigot;
#X obj 2706 -850 *~;
#X obj 2721 -866 r sawtooth_osc_state;
#X obj 2901 -850 *~;
#X obj 2916 -866 r pwm_osc_state;
#X obj 2499 -850 *~;
#X obj 2514 -866 r sine_osc_state;
#X msg 2468 -985 \$1 50;
#X obj 2468 -968 line~;
#X msg 2980 -763 == 0;
#X obj 2980 -780 r reverb_state;
#X msg 2980 -746 bypass \$1;
#X msg 226 34 0.7;
#X msg 271 34 0.45;
#X obj 2149 -483 bng 15 250 50 0 empty empty empty 17 7 0 10 -262144
-1 -1;
#X msg 2272 -1036 \; octave 0 0 \; one_four 0 0 5 \; one_five 0 0 7
\;;
#X obj 2303 -700 arraycopy scale;
#X obj 2287 -682 arraysize;
#X obj 2287 -665 s scale_size;
#X obj 2165 -220 arraycopy scale;
#X obj 2149 -202 arraysize;
#X obj 2149 -185 s scale_size;
#X obj 2149 -412 bng 15 250 50 0 empty empty empty 17 7 0 10 -262144
-1 -1;
#X obj 2149 -376 bng 15 250 50 0 empty empty empty 17 7 0 10 -262144
-1 -1;
#X obj 2149 -448 bng 15 250 50 0 empty empty empty 17 7 0 10 -262144
-1 -1;
#X obj 2149 -341 bng 15 250 50 0 empty empty empty 17 7 0 10 -262144
-1 -1;
#X obj 2149 -305 bng 15 250 50 0 empty empty empty 17 7 0 10 -262144
-1 -1;
#X obj 2149 -269 bng 15 250 50 0 empty empty empty 17 7 0 10 -262144
-1 -1;
#X obj 2738 -536 f;
#X obj 2771 -536 + 1;
#X obj 2798 -502 == 0;
#X obj 2697 -468 f;
#X obj 2730 -468 + 1;
#X obj 2657 -485 spigot;
#X obj 2697 -434 s counter;
#X obj 1987 -554 sel 0 1 2 3 4 5 6 7;
#X obj 2462 -711 clip~ -0.5 0.5;
#X obj 2551 -711 clip~ -0.5 0.5;
#X msg 2089 -1036 \; M_one_three_five 0 0 4 7 \; M_two_four_six 0 2
5 9 \; M_three_five_seven 0 4 7 11 \; M_four_six_one 0 5 9 12 \; M_five_seven_two
0 7 11 14 \; M_six_one_three 0 9 12 16 \; M_seven_two_four 0 11 14
17 \; Mo_one_three_five 0 12 16 19 \;;
#X obj 2085 -799 table M_six_one_three 3;
#X obj 2085 -819 table M_five_seven_two 3;
#X obj 2085 -839 table M_four_six_one 3;
#X obj 2085 -859 table M_three_five_seven 3;
#X obj 2085 -879 table M_two_four_six 3;
#X obj 2085 -899 table M_one_three_five 3;
#X obj 2085 -779 table M_seven_two_four 3;
#X obj 2085 -759 table Mo_one_three_five 3;
#X msg 2149 -536 set M_one_three_five;
#X msg 2165 -519 copy M_one_three_five;
#X msg 2149 -501 set M_two_four_six;
#X msg 2165 -484 copy M_two_four_six;
#X msg 2149 -466 set M_three_five_seven;
#X msg 2165 -448 copy M_three_five_seven;
#X msg 2149 -430 set M_four_six_one;
#X msg 2165 -412 copy M_four_six_one;
#X msg 2149 -394 set M_five_seven_two;
#X msg 2165 -377 copy M_five_seven_two;
#X msg 2165 -341 copy M_six_one_three;
#X msg 2149 -359 set M_six_one_three;
#X msg 2149 -324 set M_seven_two_four;
#X msg 2165 -305 copy M_seven_two_four;
#X msg 2149 -287 set Mo_one_three_five;
#X msg 2165 -269 copy Mo_one_three_five;
#X msg 1835 -1031 \; scale 0 0 1 2 3 4 5 6 7 8 9 10 11 \; chromatic
0 0 1 2 3 4 5 6 7 8 9 10 11 \; major_scale 0 0 2 4 5 7 9 11 \; nat_minor_scale
0 0 2 3 5 7 8 10 \; har_minor_scale 0 0 2 3 5 7 8 11 \;;
#X obj 2756 -634 r bpm;
#X msg 2717 -602 60000;
#X text 54 -642 Initialize Variables;
#X obj 2957 -1238 bng 15 250 50 0 empty empty empty 17 7 0 10 -262144
-1 -1;
#X msg 321 -320 150;
#X obj 2798 -519 %;
#X obj 2717 -617 bng 15 250 50 0 empty empty empty 17 7 0 10 -262144
-1 -1;
#X obj 2756 -602 * 8;
#X msg 2813 -536 1;
#X msg 2833 -536 2;
#X msg 2853 -536 4;
#X msg 2873 -536 8;
#X msg 2893 -536 16;
#X msg 2913 -536 32;
#X msg 2933 -536 64;
#X msg 2953 -536 128;
#X msg 2973 -536 256;
#X text 2814 -591 Note Length;
#X obj 2697 -451 % 8;
#X obj 2813 -553 sel 0 1 2 3 4 5 6 7 8;
#X text 2763 -454 Loop Counter;
#X msg 229 -320 2;
#X obj 2474 -113 pack;
#X msg 2495 -130 12;
#X obj 2446 -76 pack;
#X msg 187 -320 0;
#X obj 949 -1083 r left_pitch;
#X obj 1069 -1082 r left_roll;
#X obj 706 -1083 r right_pitch;
#X obj 816 -1083 r right_roll;
#X msg 475 -320 0;
#X obj 56 -617 r init_vars;
#X msg 128 -600 0;
#X msg 241 -600 0;
#X msg 348 -600 0;
#X msg 466 -600 0;
#X text 132 -621 Pitch and Roll;
#X text 133 -339 Basic Controls;
#X obj 698 -583 s pitch_range;
#X obj 786 -583 s roll_range;
#X msg 698 -600 360;
#X msg 786 -600 360;
#X obj 706 -1033 /;
#X obj 816 -1033 /;
#X obj 1232 -1033 /;
#X obj 1325 -1033 /;
#X obj 706 -946 +;
#X obj 706 -981 *;
#X obj 816 -946 +;
#X obj 816 -981 *;
#X obj 1232 -946 +;
#X obj 1232 -981 *;
#X obj 1325 -946 +;
#X obj 1325 -981 *;
#X obj 56 -514 r init_vars;
#X text 133 -518 Effect Minimums;
#X msg 615 -497 0;
#X msg 698 -497 0;
#X obj 56 -434 r init_vars;
#X text 133 -438 Effect Maximums;
#X obj 603 -264 -;
#X obj 748 -264 -;
#X obj 953 -264 -;
#X obj 1134 -264 -;
#X obj 603 -184 -;
#X obj 773 -184 -;
#X obj 930 -184 -;
#X obj 1153 -184 -;
#X floatatom 1232 -929 5 0 0 0 - - -;
#X floatatom 1325 -929 5 0 0 0 - - -;
#X obj 706 -1016 + 0.5;
#X obj 816 -1016 + 0.5;
#X obj 1232 -1016 + 0.5;
#X obj 1325 -1016 + 0.5;
#X obj 706 -929 i;
#X floatatom 706 -912 5 0 0 0 - - -;
#X obj 816 -929 i;
#X floatatom 816 -912 5 0 0 0 - - -;
#X obj 706 -896 s triad;
#X msg 129 -497 0;
#X msg 129 -417 7;
#X msg 209 -417 18;
#X msg 209 -497 6;
#X msg 419 -417 0.95;
#X msg 549 -497 0.2;
#X msg 553 -417 0.95;
#X obj 1987 -571 r triad;
#X obj 2426 -446 r triad_note;
#X msg 699 -417 5;
#X obj 2813 -570 r note_length;
#X msg 808 -497 20;
#X msg 809 -417 260;
#X obj 229 -303 s note_length;
#X msg 126 -179 1;
#X msg 126 -108 1;
#X msg 126 -250 1;
#X obj 126 51 s reverb_state;
#X obj 226 51 s dry;
#X obj 271 51 s wet;
#X obj 316 51 s damping;
#X obj 385 51 s roomsize;
#X obj 460 51 s width;
#X obj 280 -20 s bpf_width;
#X obj 205 -20 s bpf_freq;
#X msg 205 -37 1000;
#X obj 125 -20 s bpf_state;
#X obj 341 -91 s pwm_duty_cycle;
#X obj 236 -91 s pwm_osc_level;
#X obj 126 -91 s pwm_osc_state;
#X obj 126 -162 s sawtooth_osc_state;
#X obj 266 -162 s sawtooth_osc_level;
#X obj 126 -233 s sine_osc_state;
#X obj 236 -233 s sine_osc_level;
#X obj 126 -303 s volume;
#X obj 187 -303 s key;
#X obj 321 -303 s bpm;
#X obj 365 -303 s triad_note;
#X obj 475 -303 s triad;
#X msg 619 -417 0.1;
#X msg 126 -320 0.08;
#X msg 2422 -798 \$1 100;
#X msg 319 -497 2000;
#X msg 319 -417 10000;
#X msg 280 -37 3.5;
#X msg 419 -497 0.2;
#X obj 129 -480 s triad_min;
#X obj 209 -480 s triad_note_min;
#X obj 319 -480 s bpf_freq_min;
#X obj 419 -480 s pwm_duty_cycle_min;
#X obj 549 -480 s wet_min;
#X obj 615 -480 s volume_min;
#X obj 698 -480 s note_length_min;
#X obj 808 -480 s bpm_min;
#X obj 603 -281 r triad_max;
#X obj 674 -281 r triad_min;
#X obj 603 -247 s triad_range;
#X obj 748 -281 r triad_note_max;
#X obj 849 -281 r triad_note_min;
#X obj 748 -247 s triad_note_range;
#X obj 953 -281 r bpf_freq_max;
#X obj 1042 -281 r bpf_freq_min;
#X obj 953 -247 s bpf_freq_range;
#X obj 1134 -281 r pwm_duty_cycle_max;
#X obj 1259 -281 r pwm_duty_cycle_min;
#X obj 1134 -247 s pwm_duty_cycle_range;
#X obj 603 -201 r wet_max;
#X obj 662 -201 r wet_min;
#X obj 603 -167 s wet_range;
#X obj 773 -201 r volume_max;
#X obj 850 -201 r volume_min;
#X obj 773 -167 s volume_range;
#X obj 930 -201 r note_length_max;
#X obj 1037 -201 r note_length_min;
#X obj 930 -167 s note_length_range;
#X obj 1153 -201 r bpm_max;
#X obj 1212 -201 r bpm_min;
#X obj 1153 -167 s bpm_range;
#X obj 129 -400 s triad_max;
#X obj 209 -400 s triad_note_max;
#X obj 319 -400 s bpf_freq_max;
#X obj 419 -400 s pwm_duty_cycle_max;
#X obj 553 -400 s wet_max;
#X obj 619 -400 s volume_max;
#X obj 699 -400 s note_length_max;
#X obj 809 -400 s bpm_max;
#X obj 576 -583 s orientation_range;
#X msg 576 -600 360;
#X obj 1636 -1050 r orientation_range;
#X obj 721 -998 r triad_range;
#X obj 721 -963 r triad_min;
#X obj 831 -963 r triad_note_min;
#X obj 831 -998 r triad_note_range;
#X obj 816 -896 s triad_note;
#X obj 949 -1033 /;
#X obj 949 -946 +;
#X obj 949 -981 *;
#X obj 949 -1016 + 0.5;
#X floatatom 949 -929 5 0 0 0 - - -;
#X obj 949 -913 s bpf_freq;
#X obj 964 -963 r bpf_freq_min;
#X obj 964 -998 r bpf_freq_range;
#X obj 1069 -1033 /;
#X obj 1069 -946 +;
#X obj 1069 -981 *;
#X obj 1069 -1016 + 0.5;
#X floatatom 1069 -929 5 0 0 0 - - -;
#X obj 1084 -998 r pwm_duty_cycle_range;
#X obj 1084 -963 r pwm_duty_cycle_min;
#X obj 1069 -913 s pwm_duty_cycle;
#X obj 1247 -998 r wet_range;
#X obj 1247 -963 r wet_min;
#X obj 1232 -913 s wet;
#X obj 1340 -998 r volume_range;
#X obj 1340 -963 r volume_min;
#X obj 1325 -913 s volume;
#X obj 1435 -1033 /;
#X obj 1435 -946 +;
#X obj 1435 -981 *;
#X floatatom 1435 -912 5 0 0 0 - - -;
#X obj 1435 -1016 + 0.5;
#X obj 1580 -1033 /;
#X obj 1580 -946 +;
#X obj 1580 -981 *;
#X floatatom 1580 -912 5 0 0 0 - - -;
#X obj 1580 -1016 + 0.5;
#X obj 1450 -998 r note_length_range;
#X obj 1450 -963 r note_length_min;
#X obj 1435 -896 s note_length;
#X obj 1595 -998 r bpm_range;
#X obj 1595 -963 r bpm_min;
#X obj 1580 -896 s bpm;
#X obj 1435 -929 i;
#X obj 1580 -929 i;
#X obj 128 -583 s left_pitch;
#X obj 241 -583 s left_roll;
#X obj 348 -583 s right_pitch;
#X obj 466 -583 s right_roll;
#X connect 0 0 10 0;
#X connect 2 0 4 0;
#X connect 3 0 266 0;
#X connect 3 0 267 0;
#X connect 4 0 93 0;
#X connect 5 0 159 0;
#X connect 6 0 7 0;
#X connect 7 0 0 0;
#X connect 11 0 20 0;
#X connect 12 0 1 0;
#X connect 12 0 16 0;
#X connect 12 0 164 0;
#X connect 12 0 180 0;
#X connect 17 0 2 0;
#X connect 18 0 268 1;
#X connect 19 0 4 1;
#X connect 20 0 26 0;
#X connect 23 0 175 0;
#X connect 23 0 170 0;
#X connect 24 0 185 0;
#X connect 25 0 181 0;
#X connect 26 0 22 0;
#X connect 27 0 26 1;
#X connect 28 0 31 0;
#X connect 29 0 33 0;
#X connect 31 0 29 0;
#X connect 32 0 29 1;
#X connect 34 0 36 0;
#X connect 35 0 38 0;
#X connect 36 0 45 0;
#X connect 39 0 183 0;
#X connect 40 0 35 1;
#X connect 41 0 187 0;
#X connect 43 0 350 0;
#X connect 44 0 351 0;
#X connect 45 0 35 0;
#X connect 46 0 269 0;
#X connect 46 0 154 0;
#X connect 46 0 265 0;
#X connect 46 0 363 0;
#X connect 46 0 248 0;
#X connect 46 0 274 0;
#X connect 48 0 243 0;
#X connect 48 0 195 0;
#X connect 48 0 218 0;
#X connect 49 0 344 0;
#X connect 50 0 345 0;
#X connect 51 0 343 0;
#X connect 52 0 216 0;
#X connect 52 1 155 1;
#X connect 52 1 217 0;
#X connect 53 0 52 0;
#X connect 54 0 52 0;
#X connect 55 0 52 0;
#X connect 56 0 52 0;
#X connect 57 0 52 0;
#X connect 58 0 57 0;
#X connect 59 0 53 0;
#X connect 60 0 54 0;
#X connect 61 0 55 0;
#X connect 62 0 56 0;
#X connect 63 0 12 0;
#X connect 64 0 67 1;
#X connect 65 0 67 1;
#X connect 66 0 67 1;
#X connect 67 0 68 0;
#X connect 68 0 268 0;
#X connect 69 0 354 0;
#X connect 70 0 356 0;
#X connect 71 0 67 1;
#X connect 72 0 67 1;
#X connect 73 0 67 1;
#X connect 74 0 67 1;
#X connect 76 0 67 1;
#X connect 77 0 96 0;
#X connect 77 0 108 0;
#X connect 77 0 107 0;
#X connect 78 0 337 0;
#X connect 78 0 69 0;
#X connect 79 0 338 0;
#X connect 79 0 44 0;
#X connect 79 0 43 0;
#X connect 80 0 86 0;
#X connect 80 0 192 0;
#X connect 80 0 193 0;
#X connect 80 0 51 0;
#X connect 80 0 49 0;
#X connect 80 0 50 0;
#X connect 84 0 70 0;
#X connect 84 0 339 0;
#X connect 86 0 340 0;
#X connect 87 0 88 0;
#X connect 87 0 348 0;
#X connect 87 0 367 0;
#X connect 88 0 349 0;
#X connect 90 0 67 0;
#X connect 92 0 98 0;
#X connect 93 0 208 0;
#X connect 93 0 213 0;
#X connect 94 0 77 0;
#X connect 95 0 77 1;
#X connect 96 0 77 1;
#X connect 97 0 92 0;
#X connect 97 0 125 0;
#X connect 99 0 100 0;
#X connect 99 0 101 0;
#X connect 99 0 102 0;
#X connect 99 0 103 0;
#X connect 99 0 104 0;
#X connect 99 0 105 0;
#X connect 99 0 106 0;
#X connect 99 0 108 1;
#X connect 99 0 107 1;
#X connect 99 0 117 0;
#X connect 99 0 122 0;
#X connect 99 0 124 0;
#X connect 100 0 109 1;
#X connect 101 0 110 1;
#X connect 102 0 111 1;
#X connect 103 0 112 1;
#X connect 104 0 113 1;
#X connect 105 0 114 1;
#X connect 106 0 115 1;
#X connect 107 0 90 0;
#X connect 108 0 64 0;
#X connect 108 1 109 0;
#X connect 109 0 65 0;
#X connect 109 1 110 0;
#X connect 110 0 66 0;
#X connect 110 1 111 0;
#X connect 111 0 71 0;
#X connect 111 1 112 0;
#X connect 112 0 72 0;
#X connect 112 1 113 0;
#X connect 113 0 73 0;
#X connect 113 1 114 0;
#X connect 114 0 74 0;
#X connect 114 1 115 0;
#X connect 115 0 76 0;
#X connect 115 1 116 0;
#X connect 116 0 118 0;
#X connect 116 1 121 0;
#X connect 117 0 116 1;
#X connect 118 0 67 1;
#X connect 119 0 67 1;
#X connect 120 0 67 1;
#X connect 121 0 119 0;
#X connect 121 1 123 0;
#X connect 122 0 121 1;
#X connect 123 0 120 0;
#X connect 124 0 123 1;
#X connect 125 0 126 0;
#X connect 125 0 92 0;
#X connect 126 0 91 0;
#X connect 127 0 148 0;
#X connect 127 0 92 0;
#X connect 128 0 228 0;
#X connect 128 0 200 0;
#X connect 133 0 135 0;
#X connect 133 0 197 0;
#X connect 134 0 133 0;
#X connect 134 0 197 0;
#X connect 135 0 196 0;
#X connect 137 0 139 0;
#X connect 137 0 197 0;
#X connect 138 0 137 0;
#X connect 138 0 197 0;
#X connect 139 0 196 0;
#X connect 140 0 142 0;
#X connect 140 0 197 0;
#X connect 141 0 140 0;
#X connect 141 0 197 0;
#X connect 142 0 196 0;
#X connect 143 0 145 0;
#X connect 143 0 92 0;
#X connect 144 0 143 0;
#X connect 144 0 92 0;
#X connect 145 0 91 0;
#X connect 147 0 92 0;
#X connect 147 0 127 0;
#X connect 148 0 91 0;
#X connect 149 0 151 0;
#X connect 149 0 92 0;
#X connect 150 0 149 0;
#X connect 150 0 92 0;
#X connect 151 0 91 0;
#X connect 153 0 166 0;
#X connect 154 0 360 0;
#X connect 156 0 155 0;
#X connect 157 0 155 0;
#X connect 158 0 155 0;
#X connect 159 0 160 0;
#X connect 160 0 23 1;
#X connect 161 0 23 0;
#X connect 162 0 163 0;
#X connect 162 0 165 0;
#X connect 163 0 162 1;
#X connect 164 0 162 0;
#X connect 165 0 180 1;
#X connect 166 0 227 0;
#X connect 167 0 168 0;
#X connect 168 0 47 0;
#X connect 169 0 364 0;
#X connect 170 0 176 0;
#X connect 171 0 170 1;
#X connect 172 0 170 2;
#X connect 173 0 172 0;
#X connect 174 0 173 0;
#X connect 175 0 52 1;
#X connect 175 0 52 0;
#X connect 176 0 52 0;
#X connect 176 0 52 1;
#X connect 177 0 178 0;
#X connect 177 0 179 0;
#X connect 178 0 176 1;
#X connect 179 0 175 1;
#X connect 180 0 47 0;
#X connect 181 0 161 0;
#X connect 182 0 181 1;
#X connect 183 0 161 0;
#X connect 184 0 183 1;
#X connect 185 0 161 0;
#X connect 186 0 185 1;
#X connect 187 0 188 0;
#X connect 188 0 45 1;
#X connect 189 0 191 0;
#X connect 190 0 189 0;
#X connect 191 0 52 0;
#X connect 192 0 341 0;
#X connect 193 0 342 0;
#X connect 194 0 230 0;
#X connect 194 0 200 0;
#X connect 197 0 198 0;
#X connect 200 0 201 0;
#X connect 202 0 234 0;
#X connect 202 0 200 0;
#X connect 203 0 236 0;
#X connect 203 0 200 0;
#X connect 204 0 232 0;
#X connect 204 0 200 0;
#X connect 205 0 237 0;
#X connect 206 0 240 0;
#X connect 206 0 200 0;
#X connect 207 0 242 0;
#X connect 207 0 200 0;
#X connect 208 0 209 0;
#X connect 208 0 249 0;
#X connect 209 0 208 1;
#X connect 210 0 213 1;
#X connect 211 0 212 0;
#X connect 211 0 262 0;
#X connect 212 0 211 1;
#X connect 213 0 211 0;
#X connect 213 0 95 0;
#X connect 213 0 94 0;
#X connect 215 0 227 0;
#X connect 215 1 229 0;
#X connect 215 2 231 0;
#X connect 215 3 233 0;
#X connect 215 4 235 0;
#X connect 215 5 238 0;
#X connect 215 6 239 0;
#X connect 215 7 241 0;
#X connect 216 0 42 0;
#X connect 217 0 42 1;
#X connect 227 0 128 0;
#X connect 227 0 200 0;
#X connect 228 0 199 0;
#X connect 229 0 194 0;
#X connect 229 0 200 0;
#X connect 230 0 199 0;
#X connect 231 0 204 0;
#X connect 231 0 200 0;
#X connect 232 0 199 0;
#X connect 233 0 202 0;
#X connect 233 0 200 0;
#X connect 234 0 199 0;
#X connect 235 0 203 0;
#X connect 235 0 200 0;
#X connect 236 0 199 0;
#X connect 237 0 199 0;
#X connect 238 0 205 0;
#X connect 238 0 200 0;
#X connect 239 0 206 0;
#X connect 239 0 200 0;
#X connect 240 0 199 0;
#X connect 241 0 207 0;
#X connect 241 0 200 0;
#X connect 242 0 199 0;
#X connect 244 0 250 0;
#X connect 244 0 251 0;
#X connect 245 0 19 0;
#X connect 248 0 359 0;
#X connect 249 0 210 0;
#X connect 250 0 245 0;
#X connect 251 0 19 1;
#X connect 252 0 249 1;
#X connect 253 0 249 1;
#X connect 254 0 249 1;
#X connect 255 0 249 1;
#X connect 256 0 249 1;
#X connect 257 0 249 1;
#X connect 258 0 249 1;
#X connect 259 0 249 1;
#X connect 260 0 249 1;
#X connect 262 0 214 0;
#X connect 263 0 252 0;
#X connect 263 1 253 0;
#X connect 263 2 254 0;
#X connect 263 3 255 0;
#X connect 263 4 256 0;
#X connect 263 5 257 0;
#X connect 263 6 258 0;
#X connect 263 7 259 0;
#X connect 265 0 336 0;
#X connect 266 0 18 0;
#X connect 267 0 266 1;
#X connect 268 0 6 0;
#X connect 269 0 358 0;
#X connect 270 0 417 0;
#X connect 271 0 425 0;
#X connect 272 0 286 0;
#X connect 273 0 287 0;
#X connect 274 0 361 0;
#X connect 275 0 276 0;
#X connect 275 0 277 0;
#X connect 275 0 278 0;
#X connect 275 0 279 0;
#X connect 275 0 284 0;
#X connect 275 0 285 0;
#X connect 275 0 410 0;
#X connect 276 0 457 0;
#X connect 277 0 458 0;
#X connect 278 0 459 0;
#X connect 279 0 460 0;
#X connect 284 0 282 0;
#X connect 285 0 283 0;
#X connect 286 0 314 0;
#X connect 287 0 315 0;
#X connect 288 0 316 0;
#X connect 289 0 317 0;
#X connect 290 0 318 0;
#X connect 291 0 290 0;
#X connect 292 0 320 0;
#X connect 293 0 292 0;
#X connect 294 0 312 0;
#X connect 295 0 294 0;
#X connect 296 0 313 0;
#X connect 297 0 296 0;
#X connect 298 0 323 0;
#X connect 298 0 326 0;
#X connect 298 0 365 0;
#X connect 298 0 368 0;
#X connect 298 0 328 0;
#X connect 298 0 300 0;
#X connect 298 0 301 0;
#X connect 298 0 334 0;
#X connect 300 0 374 0;
#X connect 301 0 375 0;
#X connect 302 0 324 0;
#X connect 302 0 325 0;
#X connect 302 0 366 0;
#X connect 302 0 327 0;
#X connect 302 0 329 0;
#X connect 302 0 362 0;
#X connect 302 0 332 0;
#X connect 302 0 335 0;
#X connect 304 0 379 0;
#X connect 305 0 382 0;
#X connect 306 0 385 0;
#X connect 307 0 388 0;
#X connect 308 0 391 0;
#X connect 309 0 394 0;
#X connect 310 0 397 0;
#X connect 311 0 400 0;
#X connect 312 0 435 0;
#X connect 313 0 438 0;
#X connect 314 0 291 0;
#X connect 315 0 293 0;
#X connect 316 0 295 0;
#X connect 317 0 297 0;
#X connect 318 0 319 0;
#X connect 319 0 322 0;
#X connect 320 0 321 0;
#X connect 321 0 416 0;
#X connect 323 0 369 0;
#X connect 324 0 401 0;
#X connect 325 0 402 0;
#X connect 326 0 370 0;
#X connect 327 0 404 0;
#X connect 328 0 373 0;
#X connect 329 0 405 0;
#X connect 330 0 215 0;
#X connect 331 0 94 0;
#X connect 332 0 407 0;
#X connect 333 0 263 0;
#X connect 334 0 376 0;
#X connect 335 0 408 0;
#X connect 337 0 353 0;
#X connect 338 0 352 0;
#X connect 339 0 355 0;
#X connect 348 0 347 0;
#X connect 362 0 406 0;
#X connect 363 0 357 0;
#X connect 364 0 171 0;
#X connect 365 0 371 0;
#X connect 366 0 403 0;
#X connect 367 0 346 0;
#X connect 368 0 372 0;
#X connect 377 0 304 0;
#X connect 378 0 304 1;
#X connect 380 0 305 0;
#X connect 381 0 305 1;
#X connect 383 0 306 0;
#X connect 384 0 306 1;
#X connect 386 0 307 0;
#X connect 387 0 307 1;
#X connect 389 0 308 0;
#X connect 390 0 308 1;
#X connect 392 0 309 0;
#X connect 393 0 309 1;
#X connect 395 0 310 0;
#X connect 396 0 310 1;
#X connect 398 0 311 0;
#X connect 399 0 311 1;
#X connect 410 0 409 0;
#X connect 411 0 286 1;
#X connect 411 0 287 1;
#X connect 411 0 288 1;
#X connect 411 0 289 1;
#X connect 411 0 417 1;
#X connect 411 0 425 1;
#X connect 411 0 439 1;
#X connect 411 0 444 1;
#X connect 412 0 291 1;
#X connect 413 0 290 1;
#X connect 414 0 292 1;
#X connect 415 0 293 1;
#X connect 417 0 420 0;
#X connect 418 0 421 0;
#X connect 419 0 418 0;
#X connect 420 0 419 0;
#X connect 421 0 422 0;
#X connect 423 0 418 1;
#X connect 424 0 419 1;
#X connect 425 0 428 0;
#X connect 426 0 429 0;
#X connect 427 0 426 0;
#X connect 428 0 427 0;
#X connect 429 0 432 0;
#X connect 430 0 427 1;
#X connect 431 0 426 1;
#X connect 433 0 295 1;
#X connect 434 0 294 1;
#X connect 436 0 297 1;
#X connect 437 0 296 1;
#X connect 439 0 443 0;
#X connect 440 0 455 0;
#X connect 441 0 440 0;
#X connect 442 0 451 0;
#X connect 443 0 441 0;
#X connect 444 0 448 0;
#X connect 445 0 456 0;
#X connect 446 0 445 0;
#X connect 447 0 454 0;
#X connect 448 0 446 0;
#X connect 449 0 441 1;
#X connect 450 0 440 1;
#X connect 452 0 446 1;
#X connect 453 0 445 1;
#X connect 455 0 442 0;
#X connect 456 0 447 0;
#X coords 0 714 1 713 85 60 0;
