#N canvas 65 82 1301 686 10;
#X obj 1951 629 mtof;
#X msg 2620 -1189 \; pd dsp \$1;
#X obj 1707 163 tgl 15 0 empty empty empty 17 7 0 10 -262144 -1 -1
0 1;
#X obj 1979 501 r key;
#X obj 1707 187 metro;
#X obj 2082 -251 r volume;
#X obj 1951 598 +;
#X floatatom 1951 615 5 0 0 0 - - -;
#X text 1975 10 Audio Output;
#X text 1684 114 Metronome;
#X obj 2567 -1234 tgl 15 0 empty empty empty 17 7 0 10 -262144 -1 -1
0 1;
#X text 59 62 Create Scales;
#X text 2563 -1273 Turn Audio On;
#X text 1603 160 Metronome On/Off;
#X obj 2567 -1189 s wakeup;
#X obj 1707 136 r wakeup;
#X obj 1979 555 +;
#X obj 1767 170 /;
#X obj 1940 -358 osc~;
#X text 1937 -394 Sine Oscillator;
#X obj 2060 -199 *~;
#X obj 1940 -340 *~;
#X obj 2302 -318 *~;
#X text 2300 -392 Sawtooth Oscillator;
#X obj 2303 -353 phasor~;
#X obj 2573 -320 *~;
#X obj 2573 -407 phasor~;
#X text 2569 -441 PWM Oscillator;
#X obj 2060 31 dac~;
#X obj 2573 -338 >~;
#X obj 56 -335 r init_vars;
#X obj 2447 -1152 s init_vars;
#X obj 65 79 r init_vars;
#X msg 385 -4 0.85;
#X msg 460 -4 1;
#X msg 316 -4 0.5;
#X obj 2060 13 freeverb~;
#X msg 2164 -4 wet \$1;
#X msg 2254 -4 damping \$1;
#X msg 2324 -4 roomsize \$1;
#X msg 2400 -4 width \$1;
#X msg 2209 -4 dry \$1;
#X obj 2209 -21 r dry;
#X obj 2164 -21 r wet;
#X obj 2254 -21 r damping;
#X obj 2324 -21 r roomsize;
#X obj 2400 -21 r width;
#X obj 2567 -1255 r onOff;
#X msg 1626 507 0;
#X msg 1653 507 12;
#X msg 1680 507 24;
#X obj 1532 524 pack;
#X obj 1951 541 +;
#X msg 1707 507 36;
#X msg 1734 507 48;
#X msg 1761 507 60;
#X msg 1788 507 72;
#X obj 65 243 table major_scale 7;
#X msg 1815 507 84;
#X obj 1626 303 spigot;
#X obj 55 -21 r init_vars;
#X text 130 -23 Reverb;
#X obj 56 -265 r init_vars;
#X msg 126 -4 1;
#X obj 55 -92 r init_vars;
#X msg 125 -75 1;
#X text 130 -93 Bandpass Filter;
#X obj 1532 337 tabread scale;
#X obj 80 503 arraycopy scale;
#X obj 64 521 arraysize;
#X obj 1707 204 bng 15 250 50 0 empty empty empty 17 7 0 10 -262144
-1 -1;
#X floatatom 1626 287 5 0 0 0 - - -;
#X msg 1707 286 1;
#X msg 1659 286 0;
#X msg 64 365 set major_scale;
#X obj 64 538 s scale_size;
#X obj 1923 303 r scale_size;
#X obj 1680 320 * 2;
#X obj 1707 337 * 3;
#X obj 1734 354 * 4;
#X obj 1761 371 * 5;
#X obj 1788 388 * 6;
#X obj 1815 405 * 7;
#X obj 1842 422 * 8;
#X obj 1592 320 %;
#X obj 1626 320 moses;
#X obj 1653 337 moses;
#X obj 1680 354 moses;
#X obj 1707 371 moses;
#X obj 1734 388 moses;
#X obj 1761 405 moses;
#X obj 1788 422 moses;
#X obj 1815 439 moses;
#X obj 1842 456 moses;
#X obj 1869 439 * 9;
#X msg 1842 507 96;
#X msg 1869 507 108;
#X msg 1896 507 120;
#X obj 1869 473 moses;
#X obj 1896 456 * 10;
#X obj 1896 490 moses;
#X obj 1923 473 * 11;
#X obj 64 383 bng 15 250 50 0 empty empty empty 17 7 0 10 -262144 -1
-1;
#X msg 80 383 copy major_scale;
#X obj 64 419 bng 15 250 50 0 empty empty empty 17 7 0 10 -262144 -1
-1;
#X obj 869 143 bng 15 250 50 0 empty empty empty 17 7 0 10 -262144
-1 -1;
#X obj 515 223 table one_five 2;
#X obj 164 73 table scale 11;
#X obj 515 243 table one_four 2;
#X obj 65 223 table chromatic 11;
#X obj 517 327 bng 15 250 50 0 empty empty empty 17 7 0 10 -262144
-1 -1;
#X msg 517 309 set one_five;
#X msg 533 327 copy one_five;
#X obj 515 203 table octave 1;
#X obj 517 363 bng 15 250 50 0 empty empty empty 17 7 0 10 -262144
-1 -1;
#X msg 517 345 set one_four;
#X msg 533 363 copy one_four;
#X obj 517 291 bng 15 250 50 0 empty empty empty 17 7 0 10 -262144
-1 -1;
#X msg 517 273 set octave;
#X msg 533 291 copy octave;
#X obj 64 347 bng 15 250 50 0 empty empty empty 17 7 0 10 -262144 -1
-1;
#X msg 64 329 set chromatic;
#X msg 80 347 copy chromatic;
#X obj 65 263 table nat_minor_scale 7;
#X msg 64 401 set nat_minor_scale;
#X msg 80 419 copy nat_minor_scale;
#X obj 64 455 bng 15 250 50 0 empty empty empty 17 7 0 10 -262144 -1
-1;
#X msg 64 437 set har_minor_scale;
#X msg 80 455 copy har_minor_scale;
#X obj 65 283 table har_minor_scale 7;
#X obj 840 89 r init_vars;
#X msg 365 -318 12;
#X obj 2119 31 writesf~ 2;
#X msg 2426 13 start;
#X msg 2475 13 stop;
#X msg 2119 13 open /home/scheiblk/Documents/test_fave_file.wav;
#X msg 2075 -233 \$1 50;
#X obj 2075 -216 line~;
#X obj 2060 -251 +~;
#X obj 2501 -1203 f;
#X obj 2539 -1203 + 1;
#X obj 2501 -1219 bng 15 250 50 0 empty empty empty 17 7 0 10 -262144
-1 -1;
#X obj 2707 96 tgl 50 0 onOff empty ON_OFF 0 -10 0 10 -262144 -1 -1
0 1;
#X obj 2501 -1186 == 0;
#X obj 841 110 bng 15 250 50 0 empty empty empty 17 7 0 10 -262144
-1 -1;
#X obj 2447 -1203 loadbang;
#X msg 2447 -1186 1;
#X obj 1902 -173 r bpf_freq;
#X obj 2060 -122 bp~;
#X obj 1902 -139 line;
#X obj 1974 -139 line;
#X msg 1974 -156 \$1 50;
#X obj 1974 -173 r bpf_width;
#X obj 2107 -105 spigot~;
#X obj 2060 -105 spigot~;
#X obj 2083 -139 r bpf_state;
#X obj 2096 -122 == 0;
#X obj 2125 -122 == 1;
#X obj 2447 -1169 spigot;
#X obj 2334 -268 *~;
#X obj 2349 -284 r sawtooth_osc_state;
#X obj 2611 -268 *~;
#X obj 2626 -284 r pwm_osc_state;
#X obj 1969 -268 *~;
#X obj 1984 -284 r sine_osc_state;
#X msg 2588 -372 \$1 50;
#X obj 2588 -355 line~;
#X msg 2460 -21 == 0;
#X obj 2460 -38 r reverb_state;
#X msg 2460 -4 bypass \$1;
#X msg 226 -4 0.7;
#X msg 271 -4 0.45;
#X obj 869 179 bng 15 250 50 0 empty empty empty 17 7 0 10 -262144
-1 -1;
#X msg 502 96 \; octave 0 0 \; one_four 0 0 5 \; one_five 0 0 7 \;
;
#X obj 533 432 arraycopy scale;
#X obj 517 450 arraysize;
#X obj 517 467 s scale_size;
#X obj 885 442 arraycopy scale;
#X obj 869 460 arraysize;
#X obj 869 477 s scale_size;
#X obj 869 250 bng 15 250 50 0 empty empty empty 17 7 0 10 -262144
-1 -1;
#X obj 869 286 bng 15 250 50 0 empty empty empty 17 7 0 10 -262144
-1 -1;
#X obj 869 214 bng 15 250 50 0 empty empty empty 17 7 0 10 -262144
-1 -1;
#X obj 869 321 bng 15 250 50 0 empty empty empty 17 7 0 10 -262144
-1 -1;
#X obj 869 357 bng 15 250 50 0 empty empty empty 17 7 0 10 -262144
-1 -1;
#X obj 869 393 bng 15 250 50 0 empty empty empty 17 7 0 10 -262144
-1 -1;
#X obj 1724 219 f;
#X obj 1757 219 + 1;
#X obj 1784 253 == 0;
#X obj 1707 270 spigot;
#X obj 707 108 sel 0 1 2 3 4 5 6 7;
#X msg 319 96 \; M_one_three_five 0 0 4 7 \; M_two_four_six 0 2 5 9
\; M_three_five_seven 0 4 7 11 \; M_four_six_one 0 5 9 12 \; M_five_seven_two
0 7 11 14 \; M_six_one_three 0 9 12 16 \; M_seven_two_four 0 11 14
17 \; Mo_one_three_five 0 12 16 19 \;;
#X obj 315 333 table M_six_one_three 3;
#X obj 315 313 table M_five_seven_two 3;
#X obj 315 293 table M_four_six_one 3;
#X obj 315 273 table M_three_five_seven 3;
#X obj 315 253 table M_two_four_six 3;
#X obj 315 233 table M_one_three_five 3;
#X obj 315 353 table M_seven_two_four 3;
#X obj 315 373 table Mo_one_three_five 3;
#X msg 869 126 set M_one_three_five;
#X msg 885 143 copy M_one_three_five;
#X msg 869 161 set M_two_four_six;
#X msg 885 178 copy M_two_four_six;
#X msg 869 196 set M_three_five_seven;
#X msg 885 214 copy M_three_five_seven;
#X msg 869 232 set M_four_six_one;
#X msg 885 250 copy M_four_six_one;
#X msg 869 268 set M_five_seven_two;
#X msg 885 285 copy M_five_seven_two;
#X msg 885 321 copy M_six_one_three;
#X msg 869 303 set M_six_one_three;
#X msg 869 338 set M_seven_two_four;
#X msg 885 357 copy M_seven_two_four;
#X msg 869 375 set Mo_one_three_five;
#X msg 885 393 copy Mo_one_three_five;
#X msg 65 101 \; scale 0 0 1 2 3 4 5 6 7 8 9 10 11 \; chromatic 0 0
1 2 3 4 5 6 7 8 9 10 11 \; major_scale 0 0 2 4 5 7 9 11 \; nat_minor_scale
0 0 2 3 5 7 8 10 \; har_minor_scale 0 0 2 3 5 7 8 11 \;;
#X obj 1786 121 r bpm;
#X msg 1767 153 60000;
#X text 54 -860 Initialize Variables;
#X obj 2957 -1266 bng 15 250 50 0 empty empty empty 17 7 0 10 -262144
-1 -1;
#X msg 321 -318 150;
#X obj 1784 236 %;
#X obj 1767 138 bng 15 250 50 0 empty empty empty 17 7 0 10 -262144
-1 -1;
#X obj 1806 153 * 8;
#X msg 1799 219 1;
#X msg 1819 219 2;
#X msg 1839 219 4;
#X msg 1859 219 8;
#X msg 1879 219 16;
#X msg 1899 219 32;
#X msg 1919 219 64;
#X msg 1939 219 128;
#X msg 1959 219 256;
#X text 1848 167 Note Length;
#X obj 1799 202 sel 0 1 2 3 4 5 6 7 8;
#X msg 229 -318 2;
#X obj 1979 535 pack;
#X msg 2000 518 12;
#X obj 1951 572 pack;
#X msg 187 -318 0;
#X obj 2984 279 nbx 4 14 -1e+37 1e+37 0 0 empty right_pitch empty 0
-8 0 10 -262144 -1 -1 0 256;
#X obj 2981 219 knob 50 50 -90 90 0 0 right_pitch init_right_pitch
Right_Pitch -8 -15 0 12 -4034 -190721 -258113 2450 1;
#X obj 3114 280 nbx 4 14 -1e+37 1e+37 0 0 empty right_roll empty 0
-8 0 10 -262144 -1 -1 1.83673 256;
#X obj 3111 220 knob 50 50 -90 90 0 0 right_roll init_right_roll Right_Roll
-8 -15 0 12 -4034 -190721 -180225 2500 1;
#X obj 2724 279 nbx 4 14 -1e+37 1e+37 0 0 empty left_pitch empty 0
-8 0 10 -262144 -1 -1 53.2653 256;
#X obj 2721 219 knob 50 50 -90 90 0 0 left_pitch init_left_pitch Left_Pitch
-8 -15 0 12 -4034 -190721 -5312 3900 1;
#X obj 2854 280 nbx 4 14 -1e+37 1e+37 0 0 empty left_roll empty 0 -8
0 10 -262144 -1 -1 -3.67347 256;
#X obj 2851 220 knob 50 50 -90 90 0 0 left_roll init_left_roll Left_Roll
-8 -15 0 12 -4144 -190721 -4145 2350 1;
#X msg 481 -318 0;
#X obj 56 -835 r init_vars;
#X msg 128 -818 0;
#X obj 128 -801 s init_left_pitch;
#X msg 241 -818 0;
#X obj 241 -801 s init_left_roll;
#X msg 348 -818 0;
#X msg 466 -818 0;
#X obj 348 -801 s init_right_pitch;
#X obj 466 -801 s init_right_roll;
#X text 132 -839 Pitch and Roll;
#X text 133 -337 Basic Controls;
#X obj 698 -801 s pitch_range;
#X obj 786 -801 s roll_range;
#X obj 56 -662 r init_vars;
#X text 133 -666 Effect Minimums;
#X msg 868 -645 0;
#X obj 56 -582 r init_vars;
#X text 133 -586 Effect Maximums;
#X obj 133 -472 -;
#X obj 278 -472 -;
#X obj 753 -472 -;
#X obj 583 -472 -;
#X msg 129 -645 0;
#X msg 129 -565 7;
#X msg 209 -565 18;
#X msg 209 -645 6;
#X msg 589 -565 0.95;
#X msg 719 -645 0.2;
#X msg 723 -565 0.95;
#X msg 869 -565 5;
#X obj 1799 185 r note_length;
#X msg 978 -645 20;
#X msg 979 -565 260;
#X obj 229 -301 s note_length;
#X msg 647 -318 1;
#X msg 785 -318 1;
#X msg 537 -318 1;
#X obj 126 13 s reverb_state;
#X obj 226 13 s dry;
#X obj 271 13 s wet;
#X obj 316 13 s damping;
#X obj 385 13 s roomsize;
#X obj 460 13 s width;
#X obj 280 -58 s bpf_width;
#X obj 205 -58 s bpf_freq;
#X msg 205 -75 1000;
#X obj 125 -58 s bpf_state;
#X obj 785 -301 s pwm_osc_state;
#X obj 647 -301 s sawtooth_osc_state;
#X obj 537 -301 s sine_osc_state;
#X obj 126 -301 s volume;
#X obj 187 -301 s key;
#X obj 321 -301 s bpm;
#X msg 789 -565 0.1;
#X msg 126 -318 0.08;
#X msg 1902 -156 \$1 100;
#X msg 489 -645 2000;
#X msg 489 -565 10000;
#X msg 280 -75 3.5;
#X msg 589 -645 0.2;
#X obj 489 -628 s bpf_freq_min;
#X obj 589 -628 s pwm_duty_cycle_min;
#X obj 719 -628 s wet_min;
#X obj 785 -628 s volume_min;
#X obj 868 -628 s note_length_min;
#X obj 978 -628 s bpm_min;
#X obj 753 -489 r bpf_freq_max;
#X obj 842 -489 r bpf_freq_min;
#X obj 753 -455 s bpf_freq_range;
#X obj 583 -489 r volume_max;
#X obj 660 -489 r volume_min;
#X obj 583 -455 s volume_range;
#X obj 489 -548 s bpf_freq_max;
#X obj 589 -548 s pwm_duty_cycle_max;
#X obj 723 -548 s wet_max;
#X obj 789 -548 s volume_max;
#X obj 869 -548 s note_length_max;
#X obj 979 -548 s bpm_max;
#X obj 576 -801 s orientation_range;
#X obj 1110 -1061 r left_pitch;
#X obj 1257 -1061 r left_pitch_sel;
#X obj 1110 -1027 /;
#X obj 1746 -1044 r pitch_range;
#X obj 1217 -1027 /;
#X obj 1554 -1027 /;
#X obj 1327 -1027 /;
#X obj 1433 -1027 /;
#X obj 1110 -940 +;
#X obj 1110 -975 *;
#X obj 1217 -940 +;
#X obj 1217 -975 *;
#X obj 1554 -940 +;
#X obj 1554 -975 *;
#X obj 1327 -940 +;
#X obj 1327 -975 *;
#X obj 1433 -940 +;
#X obj 1433 -975 *;
#X floatatom 1554 -923 5 0 0 0 - - -;
#X floatatom 1327 -906 5 0 0 0 - - -;
#X floatatom 1433 -923 5 0 0 0 - - -;
#X obj 1110 -1010 + 0.5;
#X obj 1217 -1010 + 0.5;
#X obj 1554 -1010 + 0.5;
#X obj 1327 -1010 + 0.5;
#X obj 1433 -1010 + 0.5;
#X obj 1110 -923 i;
#X floatatom 1110 -906 5 0 0 0 - - -;
#X obj 1217 -923 i;
#X obj 1554 -907 s bpf_freq;
#X obj 1433 -907 s volume;
#X obj 1110 -1044 demux 0 1 2 3 4 5 6 7 8 9;
#X obj 1569 -992 r bpf_freq_range;
#X obj 1569 -957 r bpf_freq_min;
#X obj 1448 -992 r volume_range;
#X obj 1448 -957 r volume_min;
#X text 133 -516 Effect Ranges;
#X text 1901 -191 Bandpass Filter;
#X text 2290 -44 Reverb;
#X text 1524 314 Read Scale;
#X text 2001 586 Convert Midi Note;
#X text 2004 616 the oscillator;
#X text 2002 601 to a frequency for;
#X text 1529 549 Select note from scale;
#X obj 2341 739 bng 15 250 50 0 empty empty empty 17 7 0 10 -262144
-1 -1;
#X obj 2562 615 mtof;
#X obj 2348 149 tgl 15 0 empty empty empty 17 7 0 10 -262144 -1 -1
0 1;
#X obj 2590 487 r key;
#X obj 2348 173 metro;
#X obj 2562 584 +;
#X floatatom 2562 601 5 0 0 0 - - -;
#X text 2325 100 Metronome;
#X text 2244 146 Metronome On/Off;
#X obj 2348 122 r wakeup;
#X obj 2590 541 +;
#X obj 2408 156 /;
#X msg 2267 493 0;
#X msg 2294 493 12;
#X msg 2321 493 24;
#X obj 2173 510 pack;
#X obj 2562 527 +;
#X msg 2348 493 36;
#X msg 2375 493 48;
#X msg 2402 493 60;
#X msg 2429 493 72;
#X msg 2456 493 84;
#X obj 2267 289 spigot;
#X obj 2173 323 tabread scale;
#X obj 2348 190 bng 15 250 50 0 empty empty empty 17 7 0 10 -262144
-1 -1;
#X floatatom 2267 273 5 0 0 0 - - -;
#X msg 2348 272 1;
#X msg 2300 272 0;
#X obj 2564 289 r scale_size;
#X obj 2321 306 * 2;
#X obj 2348 323 * 3;
#X obj 2375 340 * 4;
#X obj 2402 357 * 5;
#X obj 2429 374 * 6;
#X obj 2456 391 * 7;
#X obj 2483 408 * 8;
#X obj 2233 306 %;
#X obj 2267 306 moses;
#X obj 2294 323 moses;
#X obj 2321 340 moses;
#X obj 2348 357 moses;
#X obj 2375 374 moses;
#X obj 2402 391 moses;
#X obj 2429 408 moses;
#X obj 2456 425 moses;
#X obj 2483 442 moses;
#X obj 2510 425 * 9;
#X msg 2483 493 96;
#X msg 2510 493 108;
#X msg 2537 493 120;
#X obj 2510 459 moses;
#X obj 2537 442 * 10;
#X obj 2537 476 moses;
#X obj 2564 459 * 11;
#X obj 2365 205 f;
#X obj 2398 205 + 1;
#X obj 2425 239 == 0;
#X obj 2348 256 spigot;
#X obj 2427 107 r bpm;
#X msg 2408 139 60000;
#X obj 2425 222 %;
#X obj 2408 124 bng 15 250 50 0 empty empty empty 17 7 0 10 -262144
-1 -1;
#X obj 2447 139 * 8;
#X msg 2440 205 1;
#X msg 2460 205 2;
#X msg 2480 205 4;
#X msg 2500 205 8;
#X msg 2520 205 16;
#X msg 2540 205 32;
#X msg 2560 205 64;
#X msg 2580 205 128;
#X msg 2600 205 256;
#X text 2489 153 Note Length;
#X obj 2440 188 sel 0 1 2 3 4 5 6 7 8;
#X obj 2590 521 pack;
#X obj 2562 558 pack;
#X obj 2440 171 r note_length;
#X text 2165 300 Read Scale;
#X text 2438 561 Convert Midi Note;
#X text 2441 591 the oscillator;
#X text 2439 576 to a frequency for;
#X text 2170 535 Select note from scale;
#X obj 1951 646 s~ osc_freq1;
#X obj 2562 632 s~ osc_freq2;
#X obj 2789 -76 hradio 15 1 0 8 empty empty empty 0 -8 0 10 -262144
-1 -1 0;
#X obj 2789 -61 s left_pitch_sel;
#X obj 2789 -6 hradio 15 1 0 8 empty empty empty 0 -8 0 10 -262144
-1 -1 4;
#X obj 2789 64 hradio 15 1 0 8 empty empty empty 0 -8 0 10 -262144
-1 -1 1;
#X obj 2789 134 hradio 15 1 0 8 empty empty empty 0 -8 0 10 -262144
-1 -1 2;
#X obj 2789 9 s left_roll_sel;
#X obj 2789 149 s right_roll_sel;
#X obj 2789 79 s right_pitch_sel;
#X msg 698 -818 180;
#X msg 786 -818 180;
#X obj 1125 -992 r chord_range;
#X obj 1125 -957 r chord_min;
#X obj 1110 -890 s chord;
#X obj 129 -628 s chord_min;
#X obj 129 -548 s chord_max;
#X obj 707 91 r chord;
#X obj 133 -489 r chord_max;
#X obj 204 -489 r chord_min;
#X obj 133 -455 s chord_range;
#X obj 1217 -890 s note1;
#X obj 1232 -957 r note1_min;
#X obj 1232 -992 r note1_range;
#X obj 209 -628 s note1_min;
#X obj 209 -548 s note1_max;
#X obj 278 -455 s note1_range;
#X obj 278 -489 r note1_max;
#X obj 349 -489 r note1_min;
#X obj 1626 253 r note1;
#X obj 2267 239 r note2;
#X msg 2611 504 12;
#X msg 576 -818 180;
#X obj 481 -301 s chord;
#X obj 365 -301 s note1;
#X obj 56 -755 r init_vars;
#X msg 128 -738 0;
#X obj 128 -721 s init_left_pitch_sel;
#X obj 271 -721 s init_left_roll_sel;
#X obj 408 -721 s init_right_pitch_sel;
#X obj 556 -721 s init_right_roll_sel;
#X text 132 -759 Pitch and Roll Effect Select;
#X obj 2789 -94 r init_left_pitch_sel;
#X obj 2789 -24 r init_left_roll_sel;
#X obj 2789 116 r init_right_roll_sel;
#X obj 2789 46 r init_right_pitch_sel;
#X obj 1342 -992 r note2_range;
#X obj 1342 -957 r note2_min;
#X obj 1327 -890 s note2;
#X obj 1327 -923 i;
#X text 273 -586 comment;
#X obj 299 -628 s note2_min;
#X obj 299 -548 s note2_max;
#X obj 428 -472 -;
#X obj 428 -489 r note2_max;
#X obj 499 -489 r note2_min;
#X obj 428 -455 s note2_range;
#X floatatom 1217 -906 5 0 0 0 - - -;
#X obj 1110 -827 /;
#X obj 1217 -827 /;
#X obj 1554 -827 /;
#X obj 1327 -827 /;
#X obj 1433 -827 /;
#X obj 1110 -740 +;
#X obj 1110 -775 *;
#X obj 1217 -740 +;
#X obj 1217 -775 *;
#X obj 1554 -740 +;
#X obj 1554 -775 *;
#X obj 1327 -740 +;
#X obj 1327 -775 *;
#X obj 1433 -740 +;
#X obj 1433 -775 *;
#X floatatom 1554 -723 5 0 0 0 - - -;
#X floatatom 1327 -706 5 0 0 0 - - -;
#X floatatom 1433 -723 5 0 0 0 - - -;
#X obj 1110 -810 + 0.5;
#X obj 1217 -810 + 0.5;
#X obj 1554 -810 + 0.5;
#X obj 1327 -810 + 0.5;
#X obj 1433 -810 + 0.5;
#X obj 1110 -723 i;
#X floatatom 1110 -706 5 0 0 0 - - -;
#X obj 1217 -723 i;
#X obj 1554 -707 s bpf_freq;
#X obj 1433 -707 s volume;
#X obj 1110 -844 demux 0 1 2 3 4 5 6 7 8 9;
#X obj 1569 -792 r bpf_freq_range;
#X obj 1569 -757 r bpf_freq_min;
#X obj 1448 -792 r volume_range;
#X obj 1448 -757 r volume_min;
#X obj 1125 -792 r chord_range;
#X obj 1125 -757 r chord_min;
#X obj 1110 -690 s chord;
#X obj 1217 -690 s note1;
#X obj 1232 -757 r note1_min;
#X obj 1232 -792 r note1_range;
#X obj 1342 -792 r note2_range;
#X obj 1342 -757 r note2_min;
#X obj 1327 -690 s note2;
#X obj 1327 -723 i;
#X floatatom 1217 -706 5 0 0 0 - - -;
#X obj 1110 -627 /;
#X obj 1746 -644 r pitch_range;
#X obj 1217 -627 /;
#X obj 1554 -627 /;
#X obj 1327 -627 /;
#X obj 1433 -627 /;
#X obj 1110 -540 +;
#X obj 1110 -575 *;
#X obj 1217 -540 +;
#X obj 1217 -575 *;
#X obj 1554 -540 +;
#X obj 1554 -575 *;
#X obj 1327 -540 +;
#X obj 1327 -575 *;
#X obj 1433 -540 +;
#X obj 1433 -575 *;
#X floatatom 1554 -523 5 0 0 0 - - -;
#X floatatom 1327 -506 5 0 0 0 - - -;
#X floatatom 1433 -523 5 0 0 0 - - -;
#X obj 1110 -610 + 0.5;
#X obj 1217 -610 + 0.5;
#X obj 1554 -610 + 0.5;
#X obj 1327 -610 + 0.5;
#X obj 1433 -610 + 0.5;
#X obj 1110 -523 i;
#X floatatom 1110 -506 5 0 0 0 - - -;
#X obj 1217 -523 i;
#X obj 1554 -507 s bpf_freq;
#X obj 1433 -507 s volume;
#X obj 1110 -644 demux 0 1 2 3 4 5 6 7 8 9;
#X obj 1569 -592 r bpf_freq_range;
#X obj 1569 -557 r bpf_freq_min;
#X obj 1448 -592 r volume_range;
#X obj 1448 -557 r volume_min;
#X obj 1125 -592 r chord_range;
#X obj 1125 -557 r chord_min;
#X obj 1110 -490 s chord;
#X obj 1217 -490 s note1;
#X obj 1232 -557 r note1_min;
#X obj 1232 -592 r note1_range;
#X obj 1342 -592 r note2_range;
#X obj 1342 -557 r note2_min;
#X obj 1327 -490 s note2;
#X obj 1327 -523 i;
#X floatatom 1217 -506 5 0 0 0 - - -;
#X obj 1110 -427 /;
#X obj 1217 -427 /;
#X obj 1554 -427 /;
#X obj 1327 -427 /;
#X obj 1433 -427 /;
#X obj 1110 -340 +;
#X obj 1110 -375 *;
#X obj 1217 -340 +;
#X obj 1217 -375 *;
#X obj 1554 -340 +;
#X obj 1554 -375 *;
#X obj 1327 -340 +;
#X obj 1327 -375 *;
#X obj 1433 -340 +;
#X obj 1433 -375 *;
#X floatatom 1554 -323 5 0 0 0 - - -;
#X floatatom 1327 -306 5 0 0 0 - - -;
#X floatatom 1433 -323 5 0 0 0 - - -;
#X obj 1110 -410 + 0.5;
#X obj 1217 -410 + 0.5;
#X obj 1554 -410 + 0.5;
#X obj 1327 -410 + 0.5;
#X obj 1433 -410 + 0.5;
#X obj 1110 -323 i;
#X floatatom 1110 -306 5 0 0 0 - - -;
#X obj 1217 -323 i;
#X obj 1554 -307 s bpf_freq;
#X obj 1433 -307 s volume;
#X obj 1110 -444 demux 0 1 2 3 4 5 6 7 8 9;
#X obj 1569 -392 r bpf_freq_range;
#X obj 1569 -357 r bpf_freq_min;
#X obj 1448 -392 r volume_range;
#X obj 1448 -357 r volume_min;
#X obj 1125 -392 r chord_range;
#X obj 1125 -357 r chord_min;
#X obj 1110 -290 s chord;
#X obj 1217 -290 s note1;
#X obj 1232 -357 r note1_min;
#X obj 1232 -392 r note1_range;
#X obj 1342 -392 r note2_range;
#X obj 1342 -357 r note2_min;
#X obj 1327 -290 s note2;
#X obj 1327 -323 i;
#X floatatom 1217 -306 5 0 0 0 - - -;
#X obj 1746 -844 r roll_range;
#X obj 1746 -444 r roll_range;
#X obj 1257 -461 r right_roll_sel;
#X obj 1110 -461 r right_roll;
#X obj 1110 -661 r right_pitch;
#X obj 1257 -661 r right_pitch_sel;
#X obj 1257 -861 r left_roll_sel;
#X obj 1110 -861 r left_roll;
#X obj 2713 -407 phasor~;
#X obj 2573 -424 r~ osc_freq1;
#X obj 2713 -424 r~ osc_freq2;
#X obj 2610 -302 +~;
#X obj 2380 -353 phasor~;
#X obj 2333 -302 +~;
#X obj 2303 -370 r~ osc_freq1;
#X obj 2380 -370 r~ osc_freq2;
#X obj 2017 -358 osc~;
#X obj 1940 -375 r~ osc_freq1;
#X obj 2017 -375 r~ osc_freq2;
#X obj 1970 -324 +~;
#X msg 299 -645 3;
#X msg 299 -565 15;
#X obj 2702 457 hsl 128 15 0 1 0 0 pwm_duty_cycle1 init_pwm_duty_cycle1
empty -2 -8 0 10 -262144 -1 -1 0 1;
#X obj 2702 417 hsl 128 15 0 1 0 0 pwm_osc1_level init_pwm_osc1_level
empty -2 -8 0 10 -262144 -1 -1 0 1;
#X obj 2702 377 hsl 128 15 0 1 0 0 sawtooth_osc1_level init_sawtooth_osc1_level
empty -2 -8 0 10 -262144 -1 -1 7400 1;
#X obj 2702 337 hsl 128 15 0 1 0 0 sine_osc1_level init_sine_osc1_level
empty -2 -8 0 10 -262144 -1 -1 10000 1;
#X msg 785 -645 0.04;
#X msg 271 -738 3;
#X msg 408 -738 1;
#X msg 556 -738 2;
#X floatatom 2833 337 5 0 0 0 - - -;
#X floatatom 2833 377 5 0 0 0 - - -;
#X floatatom 2833 417 5 0 0 0 - - -;
#X floatatom 2833 457 5 0 0 0 - - -;
#X obj 1833 -357 r sine_osc1_level;
#X obj 2017 -340 *~;
#X obj 2046 -357 r sine_osc2_level;
#X obj 2172 -335 r sawtooth_osc1_level;
#X obj 2381 -318 *~;
#X obj 2396 -335 r sawtooth_osc2_level;
#X obj 2713 -320 *~;
#X obj 2713 -338 >~;
#X msg 2728 -372 \$1 50;
#X obj 2728 -355 line~;
#X obj 2605 -337 r pwm_osc1_level;
#X obj 2745 -337 r pwm_osc2_level;
#X obj 2833 320 r sine_osc1_level;
#X obj 2833 360 r sawtooth_osc1_level;
#X obj 2833 400 r pwm_osc1_level;
#X obj 2982 457 hsl 128 15 0 1 0 0 pwm_duty_cycle2 init_pwm_duty_cycle2
empty -2 -8 0 10 -262144 -1 -1 8300 1;
#X obj 2982 417 hsl 128 15 0 1 0 0 pwm_osc2_level init_pwm_osc2_level
empty -2 -8 0 10 -262144 -1 -1 4500 1;
#X obj 2982 377 hsl 128 15 0 1 0 0 sawtooth_osc2_level init_sawtooth_osc2_level
empty -2 -8 0 10 -262144 -1 -1 6900 1;
#X obj 2982 337 hsl 128 15 0 1 0 0 sine_osc2_level init_sine_osc2_level
empty -2 -8 0 10 -262144 -1 -1 2100 1;
#X floatatom 3113 337 5 0 0 0 - - -;
#X floatatom 3113 377 5 0 0 0 - - -;
#X floatatom 3113 417 5 0 0 0 - - -;
#X floatatom 3113 457 5 0 0 0 - - -;
#X obj 3113 320 r sine_osc2_level;
#X obj 3113 360 r sawtooth_osc2_level;
#X obj 3113 400 r pwm_osc2_level;
#X text 2978 437 Duty Cycle 2;
#X text 2698 437 Duty Cycle 1;
#X text 2698 397 PWM Volume 1;
#X text 2698 357 Sawtooth Volume 1;
#X text 2698 317 Sine Volume 1;
#X text 2978 317 Sine Volume 2;
#X text 2978 357 Sawtooth Volume 2;
#X text 2978 397 PWM Volume 2;
#X obj 2588 -389 r pwm_duty_cycle1;
#X obj 2728 -389 r pwm_duty_cycle2;
#X obj 3113 440 r pwm_duty_cycle2;
#X obj 2833 440 r pwm_duty_cycle1;
#X msg 415 -318 9;
#X obj 415 -301 s note2;
#X obj 126 -231 s init_sine_osc1_level;
#X obj 261 -231 s init_sawtooth_osc1_level;
#X obj 422 -231 s init_pwm_osc1_level;
#X obj 553 -231 s init_pwm_duty_cycle1;
#X obj 56 -195 r init_vars;
#X text 129 -197 Instrument 2 Controls;
#X text 129 -267 Instrument 1 Controls;
#X obj 126 -161 s init_sine_osc2_level;
#X obj 261 -161 s init_sawtooth_osc2_level;
#X obj 422 -161 s init_pwm_osc2_level;
#X obj 553 -161 s init_pwm_duty_cycle2;
#X msg 126 -248 0.6;
#X msg 261 -248 0.42;
#X msg 422 -248 0.15;
#X msg 553 -248 0.34;
#X msg 126 -178 0.47;
#X msg 261 -178 0.43;
#X msg 422 -178 0.53;
#X msg 553 -178 0.58;
#X obj 2221 -139 comb~ 100 0.2 0.2 0.3 0.9;
#X obj 2284 -173 * 3;
#X obj 2284 -156 + 0.05;
#X obj 2331 -156 abs;
#X obj 2331 -173 - 0.25;
#X obj 2368 -173 - 0.15;
#X obj 2368 -156 * 8.5;
#X text 2255 -209 Input Ranges from 0.15 to 0.25;
#X obj 1684 -1027 /;
#X obj 1684 -940 +;
#X obj 1684 -975 *;
#X floatatom 1684 -923 5 0 0 0 - - -;
#X obj 1684 -1010 + 0.5;
#X obj 1699 -992 r filter1_range;
#X obj 1699 -957 r filter1_min;
#X obj 1684 -907 s filter1;
#X obj 2257 -190 r filter1;
#X msg 379 -645 0.15;
#X msg 379 -565 0.25;
#X obj 379 -628 s filter1_min;
#X obj 379 -548 s filter1_max;
#X obj 133 -402 -;
#X obj 133 -419 r filter1_max;
#X obj 218 -419 r filter1_min;
#X obj 133 -385 s filter1_range;
#X obj 2268 -87 spigot~;
#X obj 2221 -87 spigot~;
#X obj 2257 -104 == 0;
#X obj 2286 -104 == 1;
#X obj 2244 -121 r filter1_state;
#X obj 375 -92 r init_vars;
#X msg 445 -75 1;
#X obj 445 -58 s filter1_state;
#X obj 2220 -70 +~;
#X obj 1690 -827 /;
#X obj 1690 -740 +;
#X obj 1690 -775 *;
#X floatatom 1690 -723 5 0 0 0 - - -;
#X obj 1690 -810 + 0.5;
#X obj 1705 -792 r filter1_range;
#X obj 1705 -757 r filter1_min;
#X obj 1690 -707 s filter1;
#X obj 1690 -627 /;
#X obj 1690 -540 +;
#X obj 1690 -575 *;
#X floatatom 1690 -523 5 0 0 0 - - -;
#X obj 1690 -610 + 0.5;
#X obj 1705 -592 r filter1_range;
#X obj 1705 -557 r filter1_min;
#X obj 1690 -507 s filter1;
#X obj 1690 -427 /;
#X obj 1690 -340 +;
#X obj 1690 -375 *;
#X floatatom 1690 -323 5 0 0 0 - - -;
#X obj 1690 -410 + 0.5;
#X obj 1705 -392 r filter1_range;
#X obj 1705 -357 r filter1_min;
#X obj 1690 -307 s filter1;
#X connect 0 0 455 0;
#X connect 2 0 4 0;
#X connect 3 0 237 0;
#X connect 3 0 238 0;
#X connect 4 0 70 0;
#X connect 5 0 136 0;
#X connect 6 0 7 0;
#X connect 7 0 0 0;
#X connect 10 0 1 0;
#X connect 10 0 14 0;
#X connect 10 0 141 0;
#X connect 10 0 158 0;
#X connect 15 0 2 0;
#X connect 16 0 239 1;
#X connect 17 0 4 1;
#X connect 18 0 21 0;
#X connect 20 0 153 0;
#X connect 20 0 148 0;
#X connect 21 0 665 0;
#X connect 22 0 659 0;
#X connect 24 0 22 0;
#X connect 25 0 657 0;
#X connect 26 0 29 0;
#X connect 29 0 25 0;
#X connect 30 0 240 0;
#X connect 30 0 131 0;
#X connect 30 0 236 0;
#X connect 30 0 304 0;
#X connect 30 0 221 0;
#X connect 30 0 249 0;
#X connect 30 0 718 0;
#X connect 30 0 286 0;
#X connect 30 0 284 0;
#X connect 30 0 285 0;
#X connect 32 0 216 0;
#X connect 32 0 173 0;
#X connect 32 0 191 0;
#X connect 33 0 291 0;
#X connect 34 0 292 0;
#X connect 35 0 290 0;
#X connect 36 0 28 0;
#X connect 36 0 28 1;
#X connect 36 1 132 1;
#X connect 37 0 36 0;
#X connect 38 0 36 0;
#X connect 39 0 36 0;
#X connect 40 0 36 0;
#X connect 41 0 36 0;
#X connect 42 0 41 0;
#X connect 43 0 37 0;
#X connect 44 0 38 0;
#X connect 45 0 39 0;
#X connect 46 0 40 0;
#X connect 47 0 10 0;
#X connect 48 0 51 1;
#X connect 49 0 51 1;
#X connect 50 0 51 1;
#X connect 51 0 52 0;
#X connect 52 0 239 0;
#X connect 53 0 51 1;
#X connect 54 0 51 1;
#X connect 55 0 51 1;
#X connect 56 0 51 1;
#X connect 58 0 51 1;
#X connect 59 0 73 0;
#X connect 59 0 85 0;
#X connect 59 0 84 0;
#X connect 60 0 63 0;
#X connect 60 0 170 0;
#X connect 60 0 171 0;
#X connect 60 0 35 0;
#X connect 60 0 33 0;
#X connect 60 0 34 0;
#X connect 62 0 731 0;
#X connect 62 0 732 0;
#X connect 62 0 733 0;
#X connect 62 0 734 0;
#X connect 63 0 287 0;
#X connect 64 0 65 0;
#X connect 64 0 295 0;
#X connect 64 0 308 0;
#X connect 65 0 296 0;
#X connect 67 0 51 0;
#X connect 69 0 75 0;
#X connect 70 0 186 0;
#X connect 70 0 189 0;
#X connect 71 0 59 0;
#X connect 72 0 59 1;
#X connect 73 0 59 1;
#X connect 74 0 69 0;
#X connect 74 0 102 0;
#X connect 76 0 77 0;
#X connect 76 0 78 0;
#X connect 76 0 79 0;
#X connect 76 0 80 0;
#X connect 76 0 81 0;
#X connect 76 0 82 0;
#X connect 76 0 83 0;
#X connect 76 0 85 1;
#X connect 76 0 84 1;
#X connect 76 0 94 0;
#X connect 76 0 99 0;
#X connect 76 0 101 0;
#X connect 77 0 86 1;
#X connect 78 0 87 1;
#X connect 79 0 88 1;
#X connect 80 0 89 1;
#X connect 81 0 90 1;
#X connect 82 0 91 1;
#X connect 83 0 92 1;
#X connect 84 0 67 0;
#X connect 85 0 48 0;
#X connect 85 1 86 0;
#X connect 86 0 49 0;
#X connect 86 1 87 0;
#X connect 87 0 50 0;
#X connect 87 1 88 0;
#X connect 88 0 53 0;
#X connect 88 1 89 0;
#X connect 89 0 54 0;
#X connect 89 1 90 0;
#X connect 90 0 55 0;
#X connect 90 1 91 0;
#X connect 91 0 56 0;
#X connect 91 1 92 0;
#X connect 92 0 58 0;
#X connect 92 1 93 0;
#X connect 93 0 95 0;
#X connect 93 1 98 0;
#X connect 94 0 93 1;
#X connect 95 0 51 1;
#X connect 96 0 51 1;
#X connect 97 0 51 1;
#X connect 98 0 96 0;
#X connect 98 1 100 0;
#X connect 99 0 98 1;
#X connect 100 0 97 0;
#X connect 101 0 100 1;
#X connect 102 0 103 0;
#X connect 102 0 69 0;
#X connect 103 0 68 0;
#X connect 104 0 125 0;
#X connect 104 0 69 0;
#X connect 105 0 201 0;
#X connect 105 0 178 0;
#X connect 110 0 112 0;
#X connect 110 0 175 0;
#X connect 111 0 110 0;
#X connect 111 0 175 0;
#X connect 112 0 174 0;
#X connect 114 0 116 0;
#X connect 114 0 175 0;
#X connect 115 0 114 0;
#X connect 115 0 175 0;
#X connect 116 0 174 0;
#X connect 117 0 119 0;
#X connect 117 0 175 0;
#X connect 118 0 117 0;
#X connect 118 0 175 0;
#X connect 119 0 174 0;
#X connect 120 0 122 0;
#X connect 120 0 69 0;
#X connect 121 0 120 0;
#X connect 121 0 69 0;
#X connect 122 0 68 0;
#X connect 124 0 69 0;
#X connect 124 0 104 0;
#X connect 125 0 68 0;
#X connect 126 0 128 0;
#X connect 126 0 69 0;
#X connect 127 0 126 0;
#X connect 127 0 69 0;
#X connect 128 0 68 0;
#X connect 130 0 144 0;
#X connect 131 0 489 0;
#X connect 133 0 132 0;
#X connect 134 0 132 0;
#X connect 135 0 132 0;
#X connect 136 0 137 0;
#X connect 137 0 20 1;
#X connect 138 0 20 0;
#X connect 139 0 140 0;
#X connect 139 0 143 0;
#X connect 140 0 139 1;
#X connect 141 0 139 0;
#X connect 143 0 158 1;
#X connect 144 0 200 0;
#X connect 145 0 146 0;
#X connect 146 0 31 0;
#X connect 147 0 305 0;
#X connect 148 0 154 0;
#X connect 149 0 148 1;
#X connect 150 0 148 2;
#X connect 151 0 150 0;
#X connect 152 0 151 0;
#X connect 153 0 36 0;
#X connect 153 0 36 1;
#X connect 154 0 36 0;
#X connect 154 0 36 1;
#X connect 155 0 156 0;
#X connect 155 0 157 0;
#X connect 156 0 154 1;
#X connect 157 0 153 1;
#X connect 158 0 31 0;
#X connect 159 0 138 0;
#X connect 160 0 159 1;
#X connect 161 0 138 0;
#X connect 162 0 161 1;
#X connect 163 0 138 0;
#X connect 164 0 163 1;
#X connect 165 0 166 0;
#X connect 166 0 29 1;
#X connect 167 0 169 0;
#X connect 168 0 167 0;
#X connect 169 0 36 0;
#X connect 170 0 288 0;
#X connect 171 0 289 0;
#X connect 172 0 203 0;
#X connect 172 0 178 0;
#X connect 175 0 176 0;
#X connect 178 0 179 0;
#X connect 180 0 207 0;
#X connect 180 0 178 0;
#X connect 181 0 209 0;
#X connect 181 0 178 0;
#X connect 182 0 205 0;
#X connect 182 0 178 0;
#X connect 183 0 210 0;
#X connect 184 0 213 0;
#X connect 184 0 178 0;
#X connect 185 0 215 0;
#X connect 185 0 178 0;
#X connect 186 0 187 0;
#X connect 186 0 222 0;
#X connect 187 0 186 1;
#X connect 188 0 189 1;
#X connect 189 0 72 0;
#X connect 189 0 71 0;
#X connect 190 0 200 0;
#X connect 190 1 202 0;
#X connect 190 2 204 0;
#X connect 190 3 206 0;
#X connect 190 4 208 0;
#X connect 190 5 211 0;
#X connect 190 6 212 0;
#X connect 190 7 214 0;
#X connect 200 0 105 0;
#X connect 200 0 178 0;
#X connect 201 0 177 0;
#X connect 202 0 172 0;
#X connect 202 0 178 0;
#X connect 203 0 177 0;
#X connect 204 0 182 0;
#X connect 204 0 178 0;
#X connect 205 0 177 0;
#X connect 206 0 180 0;
#X connect 206 0 178 0;
#X connect 207 0 177 0;
#X connect 208 0 181 0;
#X connect 208 0 178 0;
#X connect 209 0 177 0;
#X connect 210 0 177 0;
#X connect 211 0 183 0;
#X connect 211 0 178 0;
#X connect 212 0 184 0;
#X connect 212 0 178 0;
#X connect 213 0 177 0;
#X connect 214 0 185 0;
#X connect 214 0 178 0;
#X connect 215 0 177 0;
#X connect 217 0 223 0;
#X connect 217 0 224 0;
#X connect 218 0 17 0;
#X connect 221 0 302 0;
#X connect 222 0 188 0;
#X connect 223 0 218 0;
#X connect 224 0 17 1;
#X connect 225 0 222 1;
#X connect 226 0 222 1;
#X connect 227 0 222 1;
#X connect 228 0 222 1;
#X connect 229 0 222 1;
#X connect 230 0 222 1;
#X connect 231 0 222 1;
#X connect 232 0 222 1;
#X connect 233 0 222 1;
#X connect 235 0 225 0;
#X connect 235 1 226 0;
#X connect 235 2 227 0;
#X connect 235 3 228 0;
#X connect 235 4 229 0;
#X connect 235 5 230 0;
#X connect 235 6 231 0;
#X connect 235 7 232 0;
#X connect 236 0 283 0;
#X connect 237 0 16 0;
#X connect 238 0 237 1;
#X connect 239 0 6 0;
#X connect 240 0 301 0;
#X connect 249 0 488 0;
#X connect 250 0 251 0;
#X connect 250 0 253 0;
#X connect 250 0 255 0;
#X connect 250 0 256 0;
#X connect 250 0 465 0;
#X connect 250 0 466 0;
#X connect 250 0 487 0;
#X connect 251 0 252 0;
#X connect 253 0 254 0;
#X connect 255 0 257 0;
#X connect 256 0 258 0;
#X connect 263 0 272 0;
#X connect 263 0 275 0;
#X connect 263 0 306 0;
#X connect 263 0 309 0;
#X connect 263 0 277 0;
#X connect 263 0 672 0;
#X connect 263 0 265 0;
#X connect 263 0 281 0;
#X connect 263 0 666 0;
#X connect 263 0 756 0;
#X connect 265 0 314 0;
#X connect 266 0 273 0;
#X connect 266 0 274 0;
#X connect 266 0 307 0;
#X connect 266 0 276 0;
#X connect 266 0 278 0;
#X connect 266 0 303 0;
#X connect 266 0 279 0;
#X connect 266 0 282 0;
#X connect 266 0 667 0;
#X connect 266 0 757 0;
#X connect 268 0 475 0;
#X connect 269 0 481 0;
#X connect 270 0 318 0;
#X connect 271 0 321 0;
#X connect 272 0 470 0;
#X connect 273 0 471 0;
#X connect 274 0 480 0;
#X connect 275 0 479 0;
#X connect 276 0 323 0;
#X connect 277 0 312 0;
#X connect 278 0 324 0;
#X connect 279 0 326 0;
#X connect 280 0 235 0;
#X connect 281 0 315 0;
#X connect 282 0 327 0;
#X connect 284 0 298 0;
#X connect 285 0 297 0;
#X connect 286 0 299 0;
#X connect 295 0 294 0;
#X connect 303 0 325 0;
#X connect 304 0 300 0;
#X connect 305 0 149 0;
#X connect 306 0 310 0;
#X connect 307 0 322 0;
#X connect 308 0 293 0;
#X connect 309 0 311 0;
#X connect 316 0 270 0;
#X connect 317 0 270 1;
#X connect 319 0 271 0;
#X connect 320 0 271 1;
#X connect 329 0 360 0;
#X connect 330 0 360 1;
#X connect 331 0 350 0;
#X connect 332 0 331 1;
#X connect 332 0 333 1;
#X connect 332 0 336 1;
#X connect 332 0 335 1;
#X connect 332 0 334 1;
#X connect 332 0 747 1;
#X connect 333 0 351 0;
#X connect 334 0 352 0;
#X connect 335 0 353 0;
#X connect 336 0 354 0;
#X connect 337 0 355 0;
#X connect 338 0 337 0;
#X connect 339 0 357 0;
#X connect 340 0 339 0;
#X connect 341 0 347 0;
#X connect 342 0 341 0;
#X connect 343 0 504 0;
#X connect 344 0 343 0;
#X connect 345 0 349 0;
#X connect 346 0 345 0;
#X connect 347 0 358 0;
#X connect 348 0 503 0;
#X connect 349 0 359 0;
#X connect 350 0 338 0;
#X connect 351 0 340 0;
#X connect 352 0 342 0;
#X connect 353 0 344 0;
#X connect 354 0 346 0;
#X connect 355 0 356 0;
#X connect 356 0 469 0;
#X connect 357 0 512 0;
#X connect 360 0 331 0;
#X connect 360 1 333 0;
#X connect 360 2 335 0;
#X connect 360 3 336 0;
#X connect 360 4 334 0;
#X connect 360 5 747 0;
#X connect 361 0 342 1;
#X connect 362 0 341 1;
#X connect 363 0 346 1;
#X connect 364 0 345 1;
#X connect 374 0 456 0;
#X connect 375 0 377 0;
#X connect 376 0 447 0;
#X connect 376 0 486 0;
#X connect 377 0 397 0;
#X connect 378 0 379 0;
#X connect 379 0 374 0;
#X connect 382 0 375 0;
#X connect 383 0 448 1;
#X connect 384 0 377 1;
#X connect 385 0 388 1;
#X connect 386 0 388 1;
#X connect 387 0 388 1;
#X connect 388 0 389 0;
#X connect 389 0 448 0;
#X connect 390 0 388 1;
#X connect 391 0 388 1;
#X connect 392 0 388 1;
#X connect 393 0 388 1;
#X connect 394 0 388 1;
#X connect 395 0 400 0;
#X connect 395 0 410 0;
#X connect 395 0 409 0;
#X connect 396 0 388 0;
#X connect 397 0 427 0;
#X connect 397 0 430 0;
#X connect 398 0 395 0;
#X connect 399 0 395 1;
#X connect 400 0 395 1;
#X connect 401 0 402 0;
#X connect 401 0 403 0;
#X connect 401 0 404 0;
#X connect 401 0 405 0;
#X connect 401 0 406 0;
#X connect 401 0 407 0;
#X connect 401 0 408 0;
#X connect 401 0 410 1;
#X connect 401 0 409 1;
#X connect 401 0 419 0;
#X connect 401 0 424 0;
#X connect 401 0 426 0;
#X connect 402 0 411 1;
#X connect 403 0 412 1;
#X connect 404 0 413 1;
#X connect 405 0 414 1;
#X connect 406 0 415 1;
#X connect 407 0 416 1;
#X connect 408 0 417 1;
#X connect 409 0 396 0;
#X connect 410 0 385 0;
#X connect 410 1 411 0;
#X connect 411 0 386 0;
#X connect 411 1 412 0;
#X connect 412 0 387 0;
#X connect 412 1 413 0;
#X connect 413 0 390 0;
#X connect 413 1 414 0;
#X connect 414 0 391 0;
#X connect 414 1 415 0;
#X connect 415 0 392 0;
#X connect 415 1 416 0;
#X connect 416 0 393 0;
#X connect 416 1 417 0;
#X connect 417 0 394 0;
#X connect 417 1 418 0;
#X connect 418 0 420 0;
#X connect 418 1 423 0;
#X connect 419 0 418 1;
#X connect 420 0 388 1;
#X connect 421 0 388 1;
#X connect 422 0 388 1;
#X connect 423 0 421 0;
#X connect 423 1 425 0;
#X connect 424 0 423 1;
#X connect 425 0 422 0;
#X connect 426 0 425 1;
#X connect 427 0 428 0;
#X connect 427 0 433 0;
#X connect 428 0 427 1;
#X connect 429 0 430 1;
#X connect 430 0 399 0;
#X connect 430 0 398 0;
#X connect 431 0 434 0;
#X connect 431 0 435 0;
#X connect 432 0 384 0;
#X connect 433 0 429 0;
#X connect 434 0 432 0;
#X connect 435 0 384 1;
#X connect 436 0 433 1;
#X connect 437 0 433 1;
#X connect 438 0 433 1;
#X connect 439 0 433 1;
#X connect 440 0 433 1;
#X connect 441 0 433 1;
#X connect 442 0 433 1;
#X connect 443 0 433 1;
#X connect 444 0 433 1;
#X connect 446 0 436 0;
#X connect 446 1 437 0;
#X connect 446 2 438 0;
#X connect 446 3 439 0;
#X connect 446 4 440 0;
#X connect 446 5 441 0;
#X connect 446 6 442 0;
#X connect 446 7 443 0;
#X connect 447 0 383 0;
#X connect 448 0 378 0;
#X connect 449 0 446 0;
#X connect 457 0 458 0;
#X connect 459 0 462 0;
#X connect 460 0 464 0;
#X connect 461 0 463 0;
#X connect 465 0 261 0;
#X connect 466 0 262 0;
#X connect 467 0 338 1;
#X connect 468 0 337 1;
#X connect 472 0 190 0;
#X connect 473 0 268 0;
#X connect 474 0 268 1;
#X connect 477 0 339 1;
#X connect 478 0 340 1;
#X connect 482 0 269 0;
#X connect 483 0 269 1;
#X connect 484 0 71 0;
#X connect 485 0 398 0;
#X connect 486 0 447 1;
#X connect 487 0 328 0;
#X connect 490 0 491 0;
#X connect 490 0 673 0;
#X connect 490 0 674 0;
#X connect 490 0 675 0;
#X connect 491 0 492 0;
#X connect 497 0 457 0;
#X connect 498 0 459 0;
#X connect 499 0 461 0;
#X connect 500 0 460 0;
#X connect 501 0 344 1;
#X connect 502 0 343 1;
#X connect 504 0 348 0;
#X connect 508 0 511 0;
#X connect 509 0 508 0;
#X connect 510 0 508 1;
#X connect 512 0 476 0;
#X connect 513 0 531 0;
#X connect 514 0 532 0;
#X connect 515 0 533 0;
#X connect 516 0 534 0;
#X connect 517 0 535 0;
#X connect 518 0 536 0;
#X connect 519 0 518 0;
#X connect 520 0 538 0;
#X connect 521 0 520 0;
#X connect 522 0 528 0;
#X connect 523 0 522 0;
#X connect 524 0 555 0;
#X connect 525 0 524 0;
#X connect 526 0 530 0;
#X connect 527 0 526 0;
#X connect 528 0 539 0;
#X connect 529 0 554 0;
#X connect 530 0 540 0;
#X connect 531 0 519 0;
#X connect 532 0 521 0;
#X connect 533 0 523 0;
#X connect 534 0 525 0;
#X connect 535 0 527 0;
#X connect 536 0 537 0;
#X connect 537 0 548 0;
#X connect 538 0 556 0;
#X connect 541 0 513 0;
#X connect 541 1 514 0;
#X connect 541 2 516 0;
#X connect 541 3 517 0;
#X connect 541 4 515 0;
#X connect 541 5 773 0;
#X connect 542 0 523 1;
#X connect 543 0 522 1;
#X connect 544 0 527 1;
#X connect 545 0 526 1;
#X connect 546 0 519 1;
#X connect 547 0 518 1;
#X connect 550 0 520 1;
#X connect 551 0 521 1;
#X connect 552 0 525 1;
#X connect 553 0 524 1;
#X connect 555 0 529 0;
#X connect 556 0 549 0;
#X connect 557 0 576 0;
#X connect 558 0 557 1;
#X connect 558 0 559 1;
#X connect 558 0 562 1;
#X connect 558 0 561 1;
#X connect 558 0 560 1;
#X connect 559 0 577 0;
#X connect 560 0 578 0;
#X connect 561 0 579 0;
#X connect 562 0 580 0;
#X connect 563 0 581 0;
#X connect 564 0 563 0;
#X connect 565 0 583 0;
#X connect 566 0 565 0;
#X connect 567 0 573 0;
#X connect 568 0 567 0;
#X connect 569 0 600 0;
#X connect 570 0 569 0;
#X connect 571 0 575 0;
#X connect 572 0 571 0;
#X connect 573 0 584 0;
#X connect 574 0 599 0;
#X connect 575 0 585 0;
#X connect 576 0 564 0;
#X connect 577 0 566 0;
#X connect 578 0 568 0;
#X connect 579 0 570 0;
#X connect 580 0 572 0;
#X connect 581 0 582 0;
#X connect 582 0 593 0;
#X connect 583 0 601 0;
#X connect 586 0 557 0;
#X connect 586 1 559 0;
#X connect 586 2 561 0;
#X connect 586 3 562 0;
#X connect 586 4 560 0;
#X connect 586 5 781 0;
#X connect 587 0 568 1;
#X connect 588 0 567 1;
#X connect 589 0 572 1;
#X connect 590 0 571 1;
#X connect 591 0 564 1;
#X connect 592 0 563 1;
#X connect 595 0 565 1;
#X connect 596 0 566 1;
#X connect 597 0 570 1;
#X connect 598 0 569 1;
#X connect 600 0 574 0;
#X connect 601 0 594 0;
#X connect 602 0 620 0;
#X connect 603 0 621 0;
#X connect 604 0 622 0;
#X connect 605 0 623 0;
#X connect 606 0 624 0;
#X connect 607 0 625 0;
#X connect 608 0 607 0;
#X connect 609 0 627 0;
#X connect 610 0 609 0;
#X connect 611 0 617 0;
#X connect 612 0 611 0;
#X connect 613 0 644 0;
#X connect 614 0 613 0;
#X connect 615 0 619 0;
#X connect 616 0 615 0;
#X connect 617 0 628 0;
#X connect 618 0 643 0;
#X connect 619 0 629 0;
#X connect 620 0 608 0;
#X connect 621 0 610 0;
#X connect 622 0 612 0;
#X connect 623 0 614 0;
#X connect 624 0 616 0;
#X connect 625 0 626 0;
#X connect 626 0 637 0;
#X connect 627 0 645 0;
#X connect 630 0 602 0;
#X connect 630 1 603 0;
#X connect 630 2 605 0;
#X connect 630 3 606 0;
#X connect 630 4 604 0;
#X connect 630 5 789 0;
#X connect 631 0 612 1;
#X connect 632 0 611 1;
#X connect 633 0 616 1;
#X connect 634 0 615 1;
#X connect 635 0 608 1;
#X connect 636 0 607 1;
#X connect 639 0 609 1;
#X connect 640 0 610 1;
#X connect 641 0 614 1;
#X connect 642 0 613 1;
#X connect 644 0 618 0;
#X connect 645 0 638 0;
#X connect 646 0 513 1;
#X connect 646 0 514 1;
#X connect 646 0 517 1;
#X connect 646 0 516 1;
#X connect 646 0 515 1;
#X connect 647 0 602 1;
#X connect 647 0 603 1;
#X connect 647 0 606 1;
#X connect 647 0 605 1;
#X connect 647 0 604 1;
#X connect 648 0 630 1;
#X connect 649 0 630 0;
#X connect 650 0 586 0;
#X connect 651 0 586 1;
#X connect 652 0 541 1;
#X connect 653 0 541 0;
#X connect 654 0 687 0;
#X connect 655 0 26 0;
#X connect 656 0 654 0;
#X connect 657 0 161 0;
#X connect 658 0 684 0;
#X connect 659 0 159 0;
#X connect 660 0 24 0;
#X connect 661 0 658 0;
#X connect 662 0 681 0;
#X connect 663 0 18 0;
#X connect 664 0 662 0;
#X connect 665 0 163 0;
#X connect 666 0 506 0;
#X connect 667 0 507 0;
#X connect 672 0 313 0;
#X connect 673 0 493 0;
#X connect 674 0 494 0;
#X connect 675 0 495 0;
#X connect 680 0 21 1;
#X connect 681 0 665 1;
#X connect 682 0 681 1;
#X connect 683 0 22 1;
#X connect 684 0 659 1;
#X connect 685 0 684 1;
#X connect 686 0 657 1;
#X connect 687 0 686 0;
#X connect 688 0 689 0;
#X connect 689 0 687 1;
#X connect 690 0 25 1;
#X connect 691 0 686 1;
#X connect 692 0 676 0;
#X connect 693 0 677 0;
#X connect 694 0 678 0;
#X connect 703 0 699 0;
#X connect 704 0 700 0;
#X connect 705 0 701 0;
#X connect 714 0 165 0;
#X connect 715 0 688 0;
#X connect 716 0 702 0;
#X connect 717 0 679 0;
#X connect 718 0 719 0;
#X connect 724 0 735 0;
#X connect 724 0 736 0;
#X connect 724 0 737 0;
#X connect 724 0 738 0;
#X connect 731 0 720 0;
#X connect 732 0 721 0;
#X connect 733 0 722 0;
#X connect 734 0 723 0;
#X connect 735 0 727 0;
#X connect 736 0 728 0;
#X connect 737 0 729 0;
#X connect 738 0 730 0;
#X connect 739 0 765 0;
#X connect 740 0 741 0;
#X connect 741 0 739 2;
#X connect 742 0 739 3;
#X connect 743 0 742 0;
#X connect 744 0 745 0;
#X connect 745 0 739 4;
#X connect 747 0 751 0;
#X connect 748 0 750 0;
#X connect 749 0 748 0;
#X connect 750 0 754 0;
#X connect 751 0 749 0;
#X connect 752 0 749 1;
#X connect 753 0 748 1;
#X connect 755 0 740 0;
#X connect 755 0 743 0;
#X connect 755 0 744 0;
#X connect 755 0 739 1;
#X connect 756 0 758 0;
#X connect 757 0 759 0;
#X connect 760 0 763 0;
#X connect 761 0 760 0;
#X connect 762 0 760 1;
#X connect 764 0 772 1;
#X connect 765 0 772 0;
#X connect 766 0 765 1;
#X connect 767 0 764 1;
#X connect 768 0 766 0;
#X connect 768 0 767 0;
#X connect 769 0 770 0;
#X connect 770 0 771 0;
#X connect 773 0 777 0;
#X connect 774 0 776 0;
#X connect 775 0 774 0;
#X connect 776 0 780 0;
#X connect 777 0 775 0;
#X connect 778 0 775 1;
#X connect 779 0 774 1;
#X connect 781 0 785 0;
#X connect 782 0 784 0;
#X connect 783 0 782 0;
#X connect 784 0 788 0;
#X connect 785 0 783 0;
#X connect 786 0 783 1;
#X connect 787 0 782 1;
#X connect 789 0 793 0;
#X connect 790 0 792 0;
#X connect 791 0 790 0;
#X connect 792 0 796 0;
#X connect 793 0 791 0;
#X connect 794 0 791 1;
#X connect 795 0 790 1;
#X coords 0 686 1 685 85 60 0;
