#N canvas 65 54 1301 714 10;
#X msg 2500 -1161 \; pd dsp \$1;
#X obj 2482 -833 r volume;
#X text 2337 -893 Audio Output;
#X obj 2323 111 s~ osc_freq;
#X obj 2372 -1050 r~ osc_freq;
#X obj 2447 -1206 tgl 15 0 empty empty empty 17 7 0 10 -262144 -1 -1
0 1;
#X text 2443 -1245 Turn Audio On;
#X obj 2447 -1161 s wakeup;
#X obj 2372 -1033 osc~;
#X text 2369 -1069 Sine Oscillator;
#X obj 2372 -959 s~ sine_osc;
#X obj 2460 -781 *~;
#X obj 2323 -866 r~ sine_osc;
#X obj 2507 -866 r~ sawtooth_osc;
#X obj 2372 -976 *~;
#X obj 2400 -1033 r sine_osc_level;
#X obj 2633 -1054 r~ osc_freq;
#X obj 2633 -980 *~;
#X text 2630 -1073 Sawtooth Oscillator;
#X obj 2633 -1037 phasor~;
#X obj 2679 -1037 r sawtooth_osc_level;
#X obj 2633 -966 s~ sawtooth_osc;
#X obj 2461 -700 dac~;
#X obj 56 -337 r init_vars;
#X obj 2006 -1026 s init_vars;
#X msg 385 34 0.85;
#X msg 460 34 1;
#X msg 316 34 0.5;
#X obj 2460 -729 freeverb~;
#X msg 2564 -746 wet \$1;
#X msg 2654 -746 damping \$1;
#X msg 2724 -746 roomsize \$1;
#X msg 2800 -746 width \$1;
#X msg 2609 -746 dry \$1;
#X obj 2609 -763 r dry;
#X obj 2564 -763 r wet;
#X obj 2654 -763 r damping;
#X obj 2724 -763 r roomsize;
#X obj 2800 -763 r width;
#X obj 2447 -1227 r onOff;
#X obj 56 -196 r init_vars;
#X obj 55 17 r init_vars;
#X text 130 15 Reverb;
#X text 129 -197 Sawtooth Oscillator;
#X obj 56 -267 r init_vars;
#X text 129 -269 Sine Oscillator;
#X msg 126 34 1;
#X msg 2475 -815 \$1 50;
#X obj 2475 -798 line~;
#X obj 2460 -833 +~;
#X obj 40 -1174 tgl 50 0 onOff empty ON_OFF 0 -10 0 10 -262144 -1 -1
0 1;
#X obj 2586 -850 *~;
#X obj 2601 -866 r sawtooth_osc_state;
#X obj 2379 -850 *~;
#X obj 2394 -866 r sine_osc_state;
#X msg 226 34 0.7;
#X msg 271 34 0.45;
#X text 54 -722 Initialize Variables;
#X obj 2957 -1238 bng 15 250 50 0 empty empty empty 17 7 0 10 -262144
-1 -1;
#X msg 321 -320 150;
#X msg 229 -320 2;
#X msg 187 -320 0;
#X obj 786 -1067 r left_pitch;
#X obj 786 -847 r left_roll;
#X obj 786 -617 r right_pitch;
#X obj 786 -367 r right_roll;
#X obj 933 -617 r right_pitch_sel;
#X obj 933 -847 r left_roll_sel;
#X obj 933 -1067 r left_pitch_sel;
#X obj 933 -367 r right_roll_sel;
#X msg 475 -320 0;
#X obj 56 -697 r init_vars;
#X msg 128 -680 0;
#X obj 128 -663 s init_left_pitch;
#X msg 241 -680 0;
#X obj 241 -663 s init_left_roll;
#X msg 348 -680 0;
#X msg 466 -680 0;
#X obj 348 -663 s init_right_pitch;
#X obj 466 -663 s init_right_roll;
#X text 132 -701 Pitch and Roll;
#X text 133 -339 Basic Controls;
#X obj 56 -607 r init_vars;
#X msg 128 -590 0;
#X text 132 -611 Pitch and Roll Effect Select;
#X msg 273 -590 1;
#X msg 411 -590 2;
#X msg 561 -590 3;
#X obj 578 -663 s pitch_range;
#X obj 666 -663 s roll_range;
#X obj 786 -1033 /;
#X obj 866 -1033 /;
#X obj 801 -998 r e1_range;
#X obj 786 -946 +;
#X obj 786 -981 *;
#X obj 866 -946 +;
#X obj 866 -981 *;
#X obj 881 -998 r e2_range;
#X obj 786 -813 /;
#X obj 866 -813 /;
#X obj 801 -778 r e1_range;
#X obj 786 -726 +;
#X obj 786 -761 *;
#X obj 866 -726 +;
#X obj 866 -761 *;
#X obj 881 -778 r e2_range;
#X obj 786 -583 /;
#X obj 1591 -600 r pitch_range;
#X obj 866 -583 /;
#X obj 801 -548 r e1_range;
#X obj 786 -496 +;
#X obj 786 -531 *;
#X obj 866 -496 +;
#X obj 866 -531 *;
#X obj 881 -548 r e2_range;
#X obj 786 -333 /;
#X obj 866 -333 /;
#X obj 801 -298 r e1_range;
#X obj 786 -246 +;
#X obj 786 -281 *;
#X obj 866 -246 +;
#X obj 866 -281 *;
#X obj 881 -298 r e2_range;
#X obj 1591 -830 r roll_range;
#X obj 1591 -350 r roll_range;
#X obj 56 -514 r init_vars;
#X text 133 -518 Effect Minimums;
#X obj 129 -480 s e1_min;
#X msg 669 -497 0;
#X msg 429 -497 0;
#X msg 489 -497 0;
#X msg 609 -497 0;
#X obj 189 -480 s e2_min;
#X obj 249 -480 s e3_min;
#X obj 309 -480 s e4_min;
#X obj 369 -480 s e5_min;
#X obj 429 -480 s e6_min;
#X obj 489 -480 s e7_min;
#X obj 549 -480 s e8_min;
#X obj 609 -480 s e9_min;
#X obj 669 -480 s e10_min;
#X obj 56 -434 r init_vars;
#X msg 669 -417 0;
#X msg 609 -417 0;
#X text 133 -438 Effect Maximums;
#X obj 129 -400 s e1_max;
#X obj 189 -400 s e2_max;
#X obj 249 -400 s e3_max;
#X obj 309 -400 s e4_max;
#X obj 369 -400 s e5_max;
#X obj 429 -400 s e6_max;
#X obj 489 -400 s e7_max;
#X obj 549 -400 s e8_max;
#X obj 609 -400 s e9_max;
#X obj 669 -400 s e10_max;
#X obj 63 143 s e1_range;
#X obj 63 126 -;
#X obj 63 109 r e1_max;
#X obj 116 109 r e1_min;
#X obj 801 -963 r e1_min;
#X obj 881 -963 r e2_min;
#X obj 801 -743 r e1_min;
#X obj 881 -743 r e2_min;
#X obj 801 -513 r e1_min;
#X obj 881 -513 r e2_min;
#X obj 801 -263 r e1_min;
#X obj 881 -263 r e2_min;
#X obj 173 126 -;
#X obj 283 126 -;
#X obj 393 126 -;
#X obj 503 126 -;
#X obj 63 206 -;
#X obj 173 206 -;
#X obj 283 206 -;
#X obj 393 206 -;
#X obj 503 206 -;
#X obj 173 109 r e2_max;
#X obj 226 109 r e2_min;
#X obj 173 143 s e2_range;
#X obj 283 109 r e3_max;
#X obj 336 109 r e3_min;
#X obj 283 143 s e3_range;
#X obj 393 109 r e4_max;
#X obj 446 109 r e4_min;
#X obj 393 143 s e4_range;
#X obj 503 109 r e5_max;
#X obj 556 109 r e5_min;
#X obj 503 143 s e5_range;
#X obj 63 189 r e6_max;
#X obj 63 223 s e6_range;
#X obj 116 189 r e6_min;
#X obj 173 189 r e7_max;
#X obj 173 223 s e7_range;
#X obj 226 189 r e7_min;
#X obj 283 189 r e8_max;
#X obj 336 189 r e8_min;
#X obj 283 223 s e8_range;
#X obj 393 189 r e9_max;
#X obj 446 189 r e9_min;
#X obj 393 223 s e9_range;
#X obj 503 189 r e10_max;
#X obj 562 189 r e10_min;
#X obj 503 223 s e10_range;
#X obj 205 -968 vradio 20 1 0 10 left_roll_sel init_left_roll_sel empty
-55 -20 0 16 -262144 -1 -1 1;
#X obj 365 -968 vradio 20 1 0 10 right_pitch_sel init_right_pitch_sel
empty -55 -20 0 16 -262144 -1 -1 2;
#X obj 526 -968 vradio 20 1 0 10 right_roll_sel init_right_roll_sel
empty -55 -20 0 16 -262144 -1 -1 3;
#X obj 128 -573 s init_left_pitch_sel;
#X obj 273 -573 s init_left_roll_sel;
#X obj 411 -573 s init_right_pitch_sel;
#X obj 561 -573 s init_right_roll_sel;
#X obj 786 -1016 + 0.5;
#X obj 866 -1016 + 0.5;
#X obj 786 -796 + 0.5;
#X obj 866 -796 + 0.5;
#X obj 786 -566 + 0.5;
#X obj 866 -566 + 0.5;
#X obj 786 -316 + 0.5;
#X obj 866 -316 + 0.5;
#X obj 786 -929 i;
#X floatatom 786 -912 5 0 0 0 - - -;
#X floatatom 866 -912 5 0 0 0 - - -;
#X obj 786 -709 i;
#X floatatom 786 -692 5 0 0 0 - - -;
#X floatatom 866 -692 5 0 0 0 - - -;
#X obj 786 -479 i;
#X floatatom 786 -462 5 0 0 0 - - -;
#X floatatom 866 -462 5 0 0 0 - - -;
#X obj 786 -229 i;
#X floatatom 786 -212 5 0 0 0 - - -;
#X floatatom 866 -212 5 0 0 0 - - -;
#X text 69 -927 Bandpass Frequency;
#X text 70 -907 Duty Cycle;
#X text 69 -886 Reverb Level;
#X text 70 -867 Volume;
#X text 68 -946 Triad Note;
#X text 70 -968 Triad;
#X obj 786 -896 s triad;
#X obj 866 -896 s triad_note;
#X obj 786 -676 s triad;
#X obj 866 -676 s triad_note;
#X obj 786 -446 s triad;
#X obj 866 -446 s triad_note;
#X obj 786 -196 s triad;
#X obj 866 -196 s triad_note;
#X msg 309 -417 0.95;
#X msg 369 -497 0.2;
#X msg 369 -417 0.95;
#X obj 44 -968 vradio 20 1 0 10 left_pitch_sel init_left_pitch_sel
empty -55 -20 0 16 -262144 -1 -1 0;
#X obj 786 -1050 demux 0 1 2 3 4 5 6 7 8 9;
#X obj 786 -830 demux 0 1 2 3 4 5 6 7 8 9;
#X obj 786 -600 demux 0 1 2 3 4 5 6 7 8 9;
#X obj 786 -350 demux 0 1 2 3 4 5 6 7 8 9;
#X text 229 -925 Bandpass Frequency;
#X text 230 -905 Duty Cycle;
#X text 229 -884 Reverb Level;
#X text 230 -865 Volume;
#X text 228 -944 Triad Note;
#X text 230 -966 Triad;
#X text 389 -926 Bandpass Frequency;
#X text 390 -906 Duty Cycle;
#X text 389 -885 Reverb Level;
#X text 390 -866 Volume;
#X text 388 -945 Triad Note;
#X text 390 -967 Triad;
#X text 549 -926 Bandpass Frequency;
#X text 550 -906 Duty Cycle;
#X text 549 -885 Reverb Level;
#X text 550 -866 Volume;
#X text 548 -945 Triad Note;
#X text 550 -967 Triad;
#X text 70 -847 Note Length;
#X text 230 -847 Note Length;
#X text 390 -847 Note Length;
#X text 550 -847 Note Length;
#X msg 489 -417 5;
#X text 69 -827 Beats Per Minute;
#X text 229 -827 Beats Per Minute;
#X text 389 -827 Beats Per Minute;
#X text 549 -827 Beats Per Minute;
#X msg 549 -497 20;
#X msg 549 -417 260;
#X obj 229 -303 s note_length;
#X msg 126 -179 1;
#X msg 126 -250 1;
#X obj 126 51 s reverb_state;
#X obj 226 51 s dry;
#X obj 271 51 s wet;
#X obj 316 51 s damping;
#X obj 385 51 s roomsize;
#X obj 460 51 s width;
#X obj 126 -162 s sawtooth_osc_state;
#X obj 266 -162 s sawtooth_osc_level;
#X obj 126 -233 s sine_osc_state;
#X obj 236 -233 s sine_osc_level;
#X obj 126 -303 s volume;
#X obj 187 -303 s key;
#X obj 321 -303 s bpm;
#X obj 365 -303 s triad_note;
#X obj 475 -303 s triad;
#X msg 249 -497 2000;
#X msg 249 -417 10000;
#X msg 309 -497 0.2;
#X msg 266 -179 0.1;
#X msg 126 -320 0.5;
#X obj 2321 -2 r triad_note;
#X msg 429 -417 0.1;
#X msg 365 -320 400;
#X msg 236 -250 0.2;
#X obj 196 -1107 hsl 128 15 -90 90 0 0 left_roll empty empty -2 -8
0 10 -262144 -1 -1 0 1;
#X msg 578 -680 180;
#X msg 666 -680 180;
#X msg 189 -497 50;
#X msg 189 -417 1000;
#X obj 2294 56 line 0 0.01;
#X obj 2642 -1130 osc~;
#X obj 2743 -1210 r triad;
#X obj 196 -1087 hsl 128 15 -90 90 0 0 left_pitch empty empty -2 -8
0 10 -262144 -1 -1 0 1;
#X obj 2655 -1174 abs;
#X msg 129 -497 -10;
#X msg 129 -417 10;
#X obj 2371 -1007 *~;
#X obj 2631 -1008 *~;
#X obj 1591 -1050 r pitch_range;
#X msg 1997 -1081 1;
#X connect 1 0 47 0;
#X connect 4 0 8 0;
#X connect 5 0 0 0;
#X connect 5 0 7 0;
#X connect 8 0 320 0;
#X connect 11 0 28 0;
#X connect 11 0 28 1;
#X connect 12 0 53 0;
#X connect 13 0 51 0;
#X connect 14 0 10 0;
#X connect 15 0 14 1;
#X connect 16 0 19 0;
#X connect 17 0 21 0;
#X connect 19 0 321 0;
#X connect 20 0 17 1;
#X connect 23 0 61 0;
#X connect 23 0 306 0;
#X connect 23 0 60 0;
#X connect 23 0 303 0;
#X connect 23 0 59 0;
#X connect 23 0 70 0;
#X connect 25 0 288 0;
#X connect 26 0 289 0;
#X connect 27 0 287 0;
#X connect 28 0 22 0;
#X connect 28 1 22 1;
#X connect 29 0 28 0;
#X connect 30 0 28 0;
#X connect 31 0 28 0;
#X connect 32 0 28 0;
#X connect 33 0 28 0;
#X connect 34 0 33 0;
#X connect 35 0 29 0;
#X connect 36 0 30 0;
#X connect 37 0 31 0;
#X connect 38 0 32 0;
#X connect 39 0 5 0;
#X connect 40 0 282 0;
#X connect 40 0 302 0;
#X connect 41 0 46 0;
#X connect 41 0 55 0;
#X connect 41 0 56 0;
#X connect 41 0 27 0;
#X connect 41 0 25 0;
#X connect 41 0 26 0;
#X connect 44 0 307 0;
#X connect 44 0 283 0;
#X connect 46 0 284 0;
#X connect 47 0 48 0;
#X connect 48 0 11 1;
#X connect 49 0 11 0;
#X connect 51 0 49 0;
#X connect 52 0 51 1;
#X connect 53 0 49 0;
#X connect 54 0 53 1;
#X connect 55 0 285 0;
#X connect 56 0 286 0;
#X connect 59 0 296 0;
#X connect 60 0 281 0;
#X connect 61 0 295 0;
#X connect 62 0 248 0;
#X connect 63 0 249 0;
#X connect 64 0 250 0;
#X connect 65 0 251 0;
#X connect 66 0 250 1;
#X connect 67 0 249 1;
#X connect 68 0 248 1;
#X connect 69 0 251 1;
#X connect 70 0 298 0;
#X connect 71 0 72 0;
#X connect 71 0 74 0;
#X connect 71 0 76 0;
#X connect 71 0 77 0;
#X connect 71 0 309 0;
#X connect 71 0 310 0;
#X connect 72 0 73 0;
#X connect 74 0 75 0;
#X connect 76 0 78 0;
#X connect 77 0 79 0;
#X connect 82 0 83 0;
#X connect 82 0 85 0;
#X connect 82 0 86 0;
#X connect 82 0 87 0;
#X connect 83 0 206 0;
#X connect 85 0 207 0;
#X connect 86 0 208 0;
#X connect 87 0 209 0;
#X connect 90 0 210 0;
#X connect 91 0 211 0;
#X connect 92 0 94 1;
#X connect 93 0 218 0;
#X connect 94 0 93 0;
#X connect 95 0 220 0;
#X connect 96 0 95 0;
#X connect 97 0 96 1;
#X connect 98 0 212 0;
#X connect 99 0 213 0;
#X connect 100 0 102 1;
#X connect 101 0 221 0;
#X connect 102 0 101 0;
#X connect 103 0 223 0;
#X connect 104 0 103 0;
#X connect 105 0 104 1;
#X connect 106 0 214 0;
#X connect 107 0 106 1;
#X connect 107 0 108 1;
#X connect 108 0 215 0;
#X connect 109 0 111 1;
#X connect 110 0 224 0;
#X connect 111 0 110 0;
#X connect 112 0 226 0;
#X connect 113 0 112 0;
#X connect 114 0 113 1;
#X connect 115 0 216 0;
#X connect 116 0 217 0;
#X connect 117 0 119 1;
#X connect 118 0 227 0;
#X connect 119 0 118 0;
#X connect 120 0 229 0;
#X connect 121 0 120 0;
#X connect 122 0 121 1;
#X connect 123 0 98 1;
#X connect 123 0 99 1;
#X connect 124 0 115 1;
#X connect 124 0 116 1;
#X connect 125 0 318 0;
#X connect 125 0 311 0;
#X connect 125 0 299 0;
#X connect 125 0 301 0;
#X connect 125 0 128 0;
#X connect 125 0 245 0;
#X connect 125 0 129 0;
#X connect 125 0 130 0;
#X connect 125 0 279 0;
#X connect 125 0 131 0;
#X connect 128 0 140 0;
#X connect 129 0 136 0;
#X connect 130 0 137 0;
#X connect 131 0 139 0;
#X connect 141 0 319 0;
#X connect 141 0 312 0;
#X connect 141 0 300 0;
#X connect 141 0 244 0;
#X connect 141 0 142 0;
#X connect 141 0 246 0;
#X connect 141 0 305 0;
#X connect 141 0 274 0;
#X connect 141 0 280 0;
#X connect 141 0 143 0;
#X connect 142 0 154 0;
#X connect 143 0 153 0;
#X connect 156 0 155 0;
#X connect 157 0 156 0;
#X connect 158 0 156 1;
#X connect 159 0 93 1;
#X connect 160 0 95 1;
#X connect 161 0 101 1;
#X connect 162 0 103 1;
#X connect 163 0 110 1;
#X connect 164 0 112 1;
#X connect 165 0 118 1;
#X connect 166 0 120 1;
#X connect 167 0 178 0;
#X connect 168 0 181 0;
#X connect 169 0 184 0;
#X connect 170 0 187 0;
#X connect 171 0 189 0;
#X connect 172 0 192 0;
#X connect 173 0 196 0;
#X connect 174 0 199 0;
#X connect 175 0 202 0;
#X connect 176 0 167 0;
#X connect 177 0 167 1;
#X connect 179 0 168 0;
#X connect 180 0 168 1;
#X connect 182 0 169 0;
#X connect 183 0 169 1;
#X connect 185 0 170 0;
#X connect 186 0 170 1;
#X connect 188 0 171 0;
#X connect 190 0 171 1;
#X connect 191 0 172 0;
#X connect 193 0 172 1;
#X connect 194 0 173 0;
#X connect 195 0 173 1;
#X connect 197 0 174 0;
#X connect 198 0 174 1;
#X connect 200 0 175 0;
#X connect 201 0 175 1;
#X connect 210 0 94 0;
#X connect 211 0 96 0;
#X connect 212 0 102 0;
#X connect 213 0 104 0;
#X connect 214 0 111 0;
#X connect 215 0 113 0;
#X connect 216 0 119 0;
#X connect 217 0 121 0;
#X connect 218 0 219 0;
#X connect 219 0 236 0;
#X connect 220 0 237 0;
#X connect 221 0 222 0;
#X connect 222 0 238 0;
#X connect 223 0 239 0;
#X connect 224 0 225 0;
#X connect 225 0 240 0;
#X connect 226 0 241 0;
#X connect 227 0 228 0;
#X connect 228 0 242 0;
#X connect 229 0 243 0;
#X connect 244 0 148 0;
#X connect 245 0 135 0;
#X connect 246 0 149 0;
#X connect 248 0 90 0;
#X connect 248 1 91 0;
#X connect 249 0 98 0;
#X connect 249 1 99 0;
#X connect 250 0 106 0;
#X connect 250 1 108 0;
#X connect 251 0 115 0;
#X connect 251 1 116 0;
#X connect 274 0 151 0;
#X connect 279 0 138 0;
#X connect 280 0 152 0;
#X connect 282 0 290 0;
#X connect 283 0 292 0;
#X connect 299 0 133 0;
#X connect 300 0 147 0;
#X connect 301 0 134 0;
#X connect 302 0 291 0;
#X connect 303 0 294 0;
#X connect 304 0 313 1;
#X connect 304 0 313 0;
#X connect 305 0 150 0;
#X connect 306 0 297 0;
#X connect 307 0 293 0;
#X connect 309 0 88 0;
#X connect 310 0 89 0;
#X connect 311 0 132 0;
#X connect 312 0 146 0;
#X connect 313 0 3 0;
#X connect 314 0 320 1;
#X connect 314 0 321 1;
#X connect 315 0 317 0;
#X connect 317 0 314 0;
#X connect 318 0 127 0;
#X connect 319 0 145 0;
#X connect 320 0 14 0;
#X connect 321 0 17 0;
#X connect 322 0 90 1;
#X connect 322 0 91 1;
#X connect 323 0 24 0;
#X coords 0 714 1 713 85 60 0;
